<?xml version="1.0" encoding="UTF-8" standalone="no"?>
<!DOCTYPE svg PUBLIC "-//W3C//DTD SVG 1.1//EN" "http://www.w3.org/Graphics/SVG/1.1/DTD/svg11.dtd">
<svg width="100%" height="100%" viewBox="0 0 1200 1200" version="1.1" xmlns="http://www.w3.org/2000/svg" xmlns:xlink="http://www.w3.org/1999/xlink" xml:space="preserve" xmlns:serif="http://www.serif.com/" style="fill-rule:evenodd;clip-rule:evenodd;stroke-linecap:round;stroke-miterlimit:10;">
    <path d="M896.4,562L896.4,989.7C896.4,1021 871.1,1046.3 839.8,1046.3L507.4,1046.3C476.1,1046.3 450.8,1021 450.8,989.7L450.8,141.1C450.8,109.8 476.1,84.5 507.4,84.5L839.8,84.5C871.1,84.5 896.4,109.8 896.4,141.1L896.4,562" style="fill:white;fill-rule:nonzero;"/>
    <path d="M814.6,1064.2L741.1,962.4C741.1,962.4 699.7,905.2 673.7,904.2C673.5,919.2 674.5,1026.8 679.1,1064.1L814.6,1064.1L814.6,1064.2Z" style="fill:rgb(29,202,250);fill-rule:nonzero;"/>
    <path d="M578.2,62.1L769,62.1C777.7,62.1 784.7,69.1 784.7,77.8L784.7,101.9C784.7,110.6 777.7,117.6 769,117.6L578.2,117.6C569.5,117.6 562.5,110.6 562.5,101.9L562.5,77.8C562.5,69.2 569.5,62.1 578.2,62.1Z" style="fill:rgb(243,243,243);fill-rule:nonzero;"/>
    <path d="M882.8,1047.9L896.4,1047.9L896.4,882.3L781.8,863.3L673.6,904.3C678.7,915.9 705.6,992.9 763.3,1060.3L882.7,1060.3L882.7,1047.9L882.8,1047.9Z" style="fill:rgb(29,213,250);fill-rule:nonzero;"/>
    <path d="M641.7,641.7C632.4,641.5 632.4,655.8 632.4,655.8C627.9,642.4 529.7,398.1 529.7,398.1C529.7,398.1 509.4,406.7 532.8,452.9C525.2,457.4 504.1,474.3 512.8,501.5C519.4,521.9 533.8,529.1 542.8,529.1C541.3,544.4 574,700.7 578.3,708.2C588.3,725.9 607.6,745.2 619,745.7C637.2,746.6 682,722.7 693.1,710.2C704.2,697.7 659.2,642 641.7,641.7Z" style="fill:rgb(222,142,104);fill-rule:nonzero;"/>
    <path d="M776.9,555.5C732.6,516 624.5,610.6 626.6,627C628.7,643.4 686.9,702.7 704,697.7C721.1,692.7 811.8,586.5 776.9,555.5Z" style="fill:rgb(252,196,134);fill-rule:nonzero;"/>
    <path d="M896.4,562C876.7,530.1 847.8,509.5 806.4,509.5C662.7,509.5 658.6,883.5 673.6,904.3C686.9,922.7 845.4,927.5 896.4,914.8" style="fill:rgb(254,211,133);fill-rule:nonzero;"/>
    <path d="M896.4,698.5L881.3,704.7C882.6,709.5 888.4,736.4 896.4,766.1" style="fill:rgb(222,142,104);fill-rule:nonzero;"/>
    <path d="M896.4,558.7C886.4,551.3 876.2,548.3 866.8,552.2C812.6,574.8 851.2,710.7 866.8,715.7C871.8,717.3 883.2,715.7 896.4,712.2" style="fill:rgb(254,216,146);fill-rule:nonzero;"/>
    <path d="M834,542.3C834,554.2 768.1,556.8 768.1,542.3L768.1,461.3L834,461.3L834,542.3Z" style="fill:rgb(222,142,104);fill-rule:nonzero;"/>
    <g transform="matrix(0.3697,-0.9292,0.9292,0.3697,102.783,1005.2)">
        <ellipse cx="792.3" cy="426.8" rx="80.3" ry="59.7" style="fill:rgb(222,142,104);"/>
    </g>
    <g transform="matrix(0.5823,-0.813,0.813,0.5823,-17.3948,876.041)">
        <ellipse cx="843.8" cy="454.9" rx="18.9" ry="13.2" style="fill:rgb(222,142,104);"/>
    </g>
    <path d="M899.2,416.9C899.2,405.9 888.9,393.8 887,380C886,373 888.2,343.9 880,334C863,313.6 853,317.8 840,313C817.4,304.7 808.7,291 790,291C768.8,291 760.2,302 745,302C727.6,302 713.4,294 689,294C676,294 659,311 659,326C659,361.5 692,356.4 692,365C692,371 690,375.8 690,384C690,394.8 704,401 712,401C736.4,401 739.6,398 739.6,398C744.4,388.3 750.6,379.4 758,371.5C759,370.5 774.8,381.6 800.6,382.5C821.8,383.2 836.7,387.3 836.7,397.2C836.7,404.2 834.1,424.9 834.3,430.7C834.5,436.5 836.5,440.3 837.8,440.3C839.1,440.3 839.8,438.4 848,438.4C856.7,438.4 857.4,449.1 858.9,449.1C867.7,449.1 899.2,442 899.2,416.9Z" style="fill:rgb(0,69,156);fill-rule:nonzero;"/>
    <path d="M504.5,284.8L554.4,284.8C569.2,284.8 581.2,296.8 581.2,311.6L581.2,361.5C581.2,376.3 569.2,388.3 554.4,388.3L504.5,388.3C489.7,388.3 477.7,376.3 477.7,361.5L477.7,311.6C477.7,296.8 489.7,284.8 504.5,284.8Z" style="fill:rgb(254,211,133);fill-rule:nonzero;"/>
    <circle cx="568.8" cy="293.1" r="21.2" style="fill:rgb(0,69,156);"/>
    <path d="M841.6,54L505.7,54C460.5,54 423.8,90.7 423.8,135.9L423.8,994.7C423.8,1039.9 460.5,1076.6 505.7,1076.6L841.6,1076.6C886.8,1076.6 923.5,1039.9 923.5,994.7L923.5,135.9C923.5,90.7 886.8,54 841.6,54ZM896.4,562L896.4,989.7C896.4,1021 871.1,1046.3 839.8,1046.3L507.4,1046.3C476.1,1046.3 450.8,1021 450.8,989.7L450.8,141.1C450.8,109.8 476.1,84.5 507.4,84.5L839.8,84.5C871.1,84.5 896.4,109.8 896.4,141.1L896.4,562Z" style="fill:rgb(243,243,243);fill-rule:nonzero;"/>
    <path d="M893.6,181.1L1014.9,181.1C1036.8,181.1 1054.6,198.9 1054.6,220.8C1054.6,242.7 1036.8,260.5 1014.9,260.5L893.6,260.5C871.7,260.5 853.9,242.7 853.9,220.8C853.9,198.8 871.7,181.1 893.6,181.1Z" style="fill:rgb(29,213,250);fill-rule:nonzero;"/>
    <path d="M901.1,242L866.7,207.5L866.7,276.5L901.1,242Z" style="fill:rgb(29,213,250);fill-rule:nonzero;"/>
    <circle cx="913.3" cy="222.1" r="10" style="fill:rgb(254,211,133);"/>
    <circle cx="954.3" cy="222.1" r="10" style="fill:rgb(254,211,133);"/>
    <circle cx="995.2" cy="222.1" r="10" style="fill:rgb(254,211,133);"/>
    <path d="M351.1,987.3C366,980.9 377.6,971 377.6,942.5C377.6,809 219.6,845 219.6,734.1" style="fill:none;stroke:rgb(29,213,250);stroke-width:9px;"/>
    <path d="M247.4,733.4C256,744.6 227.3,757.3 223.2,752C219.1,746.7 238.3,721.5 247.4,733.4Z" style="fill:rgb(29,213,250);fill-rule:nonzero;"/>
    <path d="M387.4,537.2C397.8,550.8 367,563.2 362,556.7C357,550.2 376.2,522.6 387.4,537.2Z" style="fill:rgb(29,213,250);fill-rule:nonzero;stroke:rgb(29,213,250);stroke-width:1px;stroke-linecap:butt;stroke-linejoin:round;stroke-miterlimit:1.41421;"/>
    <path d="M379,593.4C387.3,608.4 347,620.5 343,613.3C339,606.1 370.2,577.3 379,593.4Z" style="fill:rgb(29,213,250);fill-rule:nonzero;stroke:rgb(29,213,250);stroke-width:1px;stroke-linecap:butt;stroke-linejoin:round;stroke-miterlimit:1.41421;"/>
    <path d="M381.4,636.1C392.3,649.3 354.8,668.5 349.6,662.2C344.4,655.9 369.8,621.9 381.4,636.1Z" style="fill:rgb(29,213,250);fill-rule:nonzero;stroke:rgb(29,213,250);stroke-width:1px;stroke-linecap:butt;stroke-linejoin:round;stroke-miterlimit:1.41421;"/>
    <path d="M394.2,684C405.1,697.2 367.6,716.4 362.4,710.1C357.2,703.8 382.6,669.9 394.2,684Z" style="fill:rgb(29,213,250);fill-rule:nonzero;stroke:rgb(29,213,250);stroke-width:1px;stroke-linecap:butt;stroke-linejoin:round;stroke-miterlimit:1.41421;"/>
    <path d="M405.4,728.7C415.3,740.7 382.5,757.1 377.8,751.3C373.1,745.5 394.8,715.8 405.4,728.7Z" style="fill:rgb(29,213,250);fill-rule:nonzero;stroke:rgb(29,213,250);stroke-width:1px;stroke-linecap:butt;stroke-linejoin:round;stroke-miterlimit:1.41421;"/>
    <path d="M420.4,777.6C430.3,789.6 397.5,806 392.8,800.2C388.1,794.4 409.8,764.7 420.4,777.6Z" style="fill:rgb(29,213,250);fill-rule:nonzero;stroke:rgb(29,213,250);stroke-width:1px;stroke-linecap:butt;stroke-linejoin:round;stroke-miterlimit:1.41421;"/>
    <path d="M193,724.6C196.6,711 224.3,725.8 222.6,732.4C220.9,739 189.2,739.2 193,724.6Z" style="fill:rgb(29,213,250);fill-rule:nonzero;"/>
    <path d="M192.5,772.5C190.7,758.6 222,762 222.8,768.7C223.6,775.4 194.4,787.5 192.5,772.5Z" style="fill:rgb(29,213,250);fill-rule:nonzero;"/>
    <path d="M220.1,816C211,805.3 239,791 243.4,796.1C247.8,801.2 229.9,827.4 220.1,816Z" style="fill:rgb(29,213,250);fill-rule:nonzero;"/>
    <path d="M254.8,839.5C249.3,826.6 280.3,821.4 282.9,827.6C285.5,833.8 260.6,853.3 254.8,839.5Z" style="fill:rgb(29,213,250);fill-rule:nonzero;"/>
    <path d="M301.3,863.9C295.8,851 326.8,845.8 329.4,852C332,858.2 307.2,877.7 301.3,863.9Z" style="fill:rgb(29,213,250);fill-rule:nonzero;"/>
    <path d="M336.2,899.3C335,885.3 366.1,890 366.7,896.7C367.3,903.4 337.5,914.3 336.2,899.3Z" style="fill:rgb(29,213,250);fill-rule:nonzero;"/>
    <path d="M262.5,763.5C273.5,772.3 248.7,791.6 243.4,787.4C238.1,783.2 250.7,754 262.5,763.5Z" style="fill:rgb(29,213,250);fill-rule:nonzero;"/>
    <path d="M287.4,788.5C299.5,795.7 277.7,818.2 271.9,814.8C266.1,811.4 274.5,780.9 287.4,788.5Z" style="fill:rgb(29,213,250);fill-rule:nonzero;"/>
    <path d="M333.1,813.1C344.5,821.3 320.6,841.8 315.1,837.8C309.6,833.8 320.9,804.3 333.1,813.1Z" style="fill:rgb(29,213,250);fill-rule:nonzero;"/>
    <path d="M353.9,992.5C353.9,986.8 402.4,933.6 402.4,867.5C402.4,759.7 342.2,705.7 342.2,628.7C342.2,614.1 343.5,568.3 366.7,549.7" style="fill:none;stroke:rgb(29,213,250);stroke-width:9px;"/>
    <path d="M419.8,1116.4L331.4,1116.4C327.3,1116.4 323.6,1113.8 322.3,1109.8L278.3,976.5C276.7,971.5 279.4,966.1 284.4,964.4C285.4,964.1 286.4,963.9 287.4,963.9L464.2,963.9C469.5,963.9 473.8,968.2 473.8,973.5C473.8,974.5 473.6,975.5 473.3,976.5L428.9,1109.8C427.5,1113.8 423.9,1116.4 419.8,1116.4Z" style="fill:rgb(0,69,156);fill-rule:nonzero;"/>
    <path d="M434.6,833.7C439.8,848.4 403.4,852.6 401,845.6C398.6,838.6 429.1,817.9 434.6,833.7Z" style="fill:rgb(29,213,250);fill-rule:nonzero;stroke:rgb(29,213,250);stroke-width:1px;stroke-linecap:butt;stroke-linejoin:round;stroke-miterlimit:1.41421;"/>
    <path d="M375.2,855.3C386.7,844.9 404.7,876.8 399.1,881.8C393.5,886.8 362.8,866.5 375.2,855.3Z" style="fill:rgb(29,213,250);fill-rule:nonzero;"/>
    <path d="M365.9,815.5C373.5,802 400.6,826.6 397,833C393.4,839.4 357.7,830 365.9,815.5Z" style="fill:rgb(29,213,250);fill-rule:nonzero;"/>
    <path d="M357.2,768.3C364.8,754.8 391.9,779.4 388.3,785.8C384.7,792.2 349,782.8 357.2,768.3Z" style="fill:rgb(29,213,250);fill-rule:nonzero;"/>
    <path d="M341.7,730.8C346.7,716 377.9,735.1 375.5,742.2C373.1,749.3 336.3,746.5 341.7,730.8Z" style="fill:rgb(29,213,250);fill-rule:nonzero;"/>
    <path d="M319.7,679C327,665.2 354.7,689.1 351.2,695.7C347.7,702.3 312,693.8 319.7,679Z" style="fill:rgb(29,213,250);fill-rule:nonzero;"/>
    <path d="M309.4,621.4C317.9,608.4 343.4,634.7 339.3,640.9C335.2,647.1 300.3,635.4 309.4,621.4Z" style="fill:rgb(29,213,250);fill-rule:nonzero;"/>
    <path d="M314.5,571.8C323,558.8 348.5,585.1 344.4,591.3C340.3,597.5 305.4,585.8 314.5,571.8Z" style="fill:rgb(29,213,250);fill-rule:nonzero;"/>
    <path d="M434.6,884.7C439.8,899.4 403.4,903.6 401,896.6C398.6,889.6 429.1,869 434.6,884.7Z" style="fill:rgb(29,213,250);fill-rule:nonzero;stroke:rgb(29,213,250);stroke-width:1px;stroke-linecap:butt;stroke-linejoin:round;stroke-miterlimit:1.41421;"/>
</svg>
