<svg xmlns="http://www.w3.org/2000/svg" viewBox="0 0 100 62.159456111899026" xmlns:xlink="http://www.w3.org/1999/xlink" version="1.1"  ><g transform="translate(36.4367244191982 29.668080597443204) scale(0.556830993798978)" id="horizontalContainerlessSvgTemplate"><g fill="#000000"><g transform="translate(-2.2492970946579196 -13.331771321462035) scale(0.6664583984171614)" fill="#000000"><g id="line1" fill="#000000"><path d="M47.180-3.938L47.109-3.305L47.004-2.637L47.004-2.637Q46.934-2.074 46.934-1.652L46.934-1.652L46.934-1.371L46.688-0.316L46.688-0.316Q46.512 0.070 46.477 0.527L46.477 0.527L46.371 0.844L46.441 0.773L46.371 1.020L46.336 0.949L46.230 1.230L46.266 1.195L46.301 1.230L46.090 1.617L46.020 1.863L45.914 2.074L45.879 2.180L45.879 2.180Q45.492 2.707 45.352 3.375L45.352 3.375L44.859 4.289L44.859 4.289Q44.438 4.641 44.332 5.168L44.332 5.168L43.805 5.977L43.805 5.977Q43.313 6.293 43.137 6.855L43.137 6.855L42.891 7.172L42.961 7.172L42.855 7.313L42.855 7.207L42.398 7.699L42.398 7.699Q42.082 7.945 41.871 8.297L41.871 8.297L41.871 8.297Q41.098 9.070 40.219 9.773L40.219 9.773L40.219 9.773Q39.023 10.441 38.004 11.320L38.004 11.320L36.879 11.953L36.879 11.953Q36.352 11.988 36.035 12.340L36.035 12.340L36.035 12.340Q35.438 12.621 34.629 12.867L34.629 12.867L33.223 13.359L33.223 13.359Q31.781 13.711 30.305 13.887L30.305 13.887L30.305 13.887Q30.059 13.852 29.813 13.852L29.813 13.852L29.813 13.852Q29.391 13.852 29.074 13.957L29.074 13.957L28.477 13.992L28.547 14.063L28.336 14.027L28.371 13.992L28.090 13.992L28.090 13.992Q27.773 13.887 27.422 13.887L27.422 13.887L27.422 13.887Q27.211 13.887 27 13.922L27 13.922L26.367 13.887L26.473 13.957L25.770 13.816L24.293 13.500L22.852 13.148L22.289 12.973L22.289 12.973Q21.727 12.586 21.094 12.516L21.094 12.516L21.094 12.516Q20.461 12.270 19.969 12.023L19.969 12.023L19.969 12.094L19.617 11.918L19.688 11.848L19.688 11.848Q17.648 10.793 15.855 9.246L15.855 9.246L15.855 9.246Q15.539 8.719 14.977 8.438L14.977 8.438L14.836 8.297L14.766 8.227L14.730 8.227L14.730 8.191L14.730 8.191Q13.184 6.539 11.988 4.570L11.988 4.570L11.988 4.570Q11.883 3.973 11.461 3.586L11.461 3.586L11.461 3.586Q11.039 2.707 10.688 1.828L10.688 1.828L10.688 1.828Q10.617 1.301 10.336 0.844L10.336 0.844L10.020-0.211L9.914-0.422L9.949-0.457L9.773-1.266L9.773-1.266Q9.773-1.828 9.598-2.391L9.598-2.391L9.527-3.023L9.492-2.988L9.492-2.988Q9.527-3.691 9.527-4.324L9.527-4.324L9.527-4.324Q9.527-5.309 9.457-6.188L9.457-6.188L9.492-6.539L9.422-6.469L9.422-6.469Q9.422-6.820 9.492-7.172L9.492-7.172L9.527-7.172L9.703-8.332L9.633-8.297L9.703-8.543L9.738-8.543L9.844-8.930L9.773-8.859L9.773-8.895L9.949-9.457L10.160-10.020L10.160-10.020Q10.406-10.688 10.477-11.145L10.477-11.145L10.863-12.199L10.863-12.199Q11.355-12.797 11.918-13.852L11.918-13.852L11.918-13.852Q12.340-14.695 12.727-15.645L12.727-15.645L13.254-16.348L13.184-16.383L13.184-16.383Q14.309-17.297 14.766-18.141L14.766-18.141L14.766-18.141Q15.926-19.301 17.227-20.250L17.227-20.250L17.367-20.355L17.367-19.055L17.367-19.055Q17.297-18.457 17.297-18L17.297-18L17.297-17.684L17.297-17.684Q17.297-17.262 17.367-16.945L17.367-16.945L17.367-16.242L17.438-16.313L17.438-16.313Q17.438-16.137 17.402-15.996L17.402-15.996L17.367-15.961L17.367-15.961Q17.297-15.680 17.297-15.258L17.297-15.258L17.297-14.941L17.332-14.449L17.367-13.922L17.367-11.777L17.367-11.777Q17.332-11.566 17.332-11.355L17.332-11.355L17.332-11.355Q17.332-11.145 17.367-10.934L17.367-10.934L17.367-6.926L17.367-6.926Q17.332-6.363 17.332-6.012L17.332-6.012L17.332-5.695L17.332-5.695Q17.332-5.379 17.367-5.133L17.367-5.133L17.367-4.535L17.367-4.535Q17.473-4.465 17.473-4.359L17.473-4.359L17.473-4.359Q17.473-4.289 17.367-4.184L17.367-4.184L17.367-1.898L17.367-1.898Q17.332-1.688 17.332-1.477L17.332-1.477L17.332-1.477Q17.332-1.055 17.508-0.668L17.508-0.668L17.508-0.668Q17.824-0.105 18.492-0.035L18.492-0.035L18.492-0.035Q18.668 0.035 18.844 0.035L18.844 0.035L18.879 0L19.125 0L19.195 0.035L19.512 0.035L19.512-0.070L19.898-0.070L19.898 0.035L21.867 0.035L21.867 0.035Q22.500 0.035 22.922-0.387L22.922-0.387L22.922-0.387Q23.379-0.844 23.379-1.477L23.379-1.477L23.379-1.547L23.238-1.652L23.344-2.004L23.379-2.004L23.379-2.074L23.379-2.074Q23.520-2.566 23.520-3.551L23.520-3.551L23.520-3.551Q23.484-4.359 23.379-5.063L23.379-5.063L23.379-5.625L23.309-5.695L23.309-5.695Q23.309-5.836 23.344-5.977L23.344-5.977L23.344-6.188L23.344-6.188Q23.379-6.223 23.379-6.328L23.379-6.328L23.379-10.125L23.379-10.125Q23.484-10.688 23.520-11.215L23.520-11.215L23.520-11.215Q23.520-11.918 23.379-12.305L23.379-12.305L23.379-12.586L23.273-12.551L23.273-12.551Q23.238-12.656 23.238-12.832L23.238-12.832L23.379-12.727L23.379-17.754L23.309-17.684L23.309-18.141L23.379-18.105L23.379-20.004L23.309-19.934L23.309-20.074L23.379-20.039L23.379-20.461L23.309-20.461L23.309-20.531L23.379-20.496L23.379-22.852L23.379-22.852Q23.379-22.992 23.449-23.203L23.449-23.203L23.766-23.273L24.047-23.379L24.047-23.379Q24.926-23.590 25.805-23.695L25.805-23.695L25.805-23.695Q26.438-23.695 27-23.906L27-23.906L27-23.871L26.965-23.836L27.844-23.871L27.844-23.871Q28.266-23.766 28.934-23.766L28.934-23.766L29.496-23.801L30.059-23.801L30.727-23.730L31.711-23.590L31.711-23.590Q32.484-23.309 32.871-23.309L32.871-23.309L32.941-23.309L33.258-23.238L33.293-23.309L33.293-23.309Q33.539-23.309 33.715-23.168L33.715-23.168L33.715-23.098L33.996-23.027L33.996-23.027Q34.418-22.746 34.910-22.746L34.910-22.746L34.910-22.746Q35.227-22.746 35.543-22.887L35.543-22.887L35.543-22.887Q36.352-23.273 36.457-24.152L36.457-24.152L37.301-26.191L37.301-26.191Q37.582-26.578 37.582-27L37.582-27L37.582-27Q37.582-27.141 37.547-27.281L37.547-27.281L37.547-27.281Q37.406-28.195 36.246-28.688L36.246-28.688L36.246-28.688Q35.789-28.863 35.227-29.004L35.227-29.004L35.227-29.004Q34.805-29.074 34.277-29.145L34.277-29.145L33.258-29.391L33.293-29.285L33.082-29.355L33.117-29.391L32.836-29.461L32.836-29.461Q32.520-29.566 32.203-29.566L32.203-29.566L32.203-29.566Q30.867-29.777 29.566-29.848L29.566-29.848L29.566-29.848Q29.074-29.883 28.441-29.883L28.441-29.883L28.441-29.883Q26.965-29.883 24.855-29.602L24.855-29.602L24.891-29.531L24.539-29.461L24.609-29.566L23.379-29.355L23.379-29.953L23.379-29.953Q23.484-30.199 23.484-30.410L23.484-30.410L23.484-30.410Q23.484-30.656 23.379-30.867L23.379-30.867L23.379-33.328L23.238-33.223L23.238-33.434L23.379-33.363L23.379-35.613L23.414-36.035L23.414-36.035Q23.414-36.527 23.379-36.879L23.379-36.879L23.379-37.301L23.309-37.266L23.273-37.617L23.379-37.582L23.379-37.969L23.379-37.969Q23.449-38.215 23.449-38.461L23.449-38.461L23.449-38.461Q23.449-38.777 23.344-39.059L23.344-39.059L23.309-39.305L23.379-39.305L23.379-40.008L23.379-40.008Q23.520-40.395 23.520-41.133L23.520-41.133L23.520-41.449L23.520-41.449Q23.520-41.836 23.449-42.258L23.449-42.258L23.449-42.258Q23.414-42.609 23.379-42.926L23.379-42.926L23.379-46.160L23.379-46.160Q23.484-46.406 23.484-46.652L23.484-46.652L23.484-46.652Q23.484-46.898 23.379-47.145L23.379-47.145L23.379-48.234L23.379-48.234Q23.449-48.480 23.449-48.691L23.449-48.691L23.449-48.691Q23.449-48.938 23.379-49.184L23.379-49.184L23.379-50.906L23.449-51.609L23.449-51.785L23.449-51.785Q23.449-52.066 23.379-52.313L23.379-52.313L23.379-53.719L23.414-53.789L24.223-53.789L24.223-53.789Q24.223-53.824 24.258-53.859L24.258-53.859L24.434-53.824L24.504-53.789L25.172-53.789L25.172-53.789Q25.418-53.754 25.664-53.754L25.664-53.754L25.664-53.754Q25.945-53.754 26.191-53.789L26.191-53.789L26.332-53.789L26.332-53.789Q26.508-53.824 26.719-53.824L26.719-53.824L26.684-53.789L26.859-53.789L26.859-53.789Q28.160-53.789 29.531-53.613L29.531-53.613L29.531-53.613Q30.375-53.297 31.289-53.297L31.289-53.297L31.289-53.297Q31.957-53.156 32.590-52.945L32.590-52.945L32.625-52.980L32.871-52.910L33.082-52.805L33.082-52.805Q33.469-52.594 33.961-52.418L33.961-52.418L34.383-52.277L34.840-52.137L34.840-52.137Q35.508-51.855 36.070-51.574L36.070-51.574L36.070-51.574Q36.879-50.906 37.688-50.660L37.688-50.660L37.688-50.660Q39.129-49.746 40.324-48.691L40.324-48.691L40.324-48.691Q40.289-48.762 40.289-48.867L40.289-48.867L40.605-48.586L40.465-48.586L40.465-48.586Q40.992-48.094 41.625-47.461L41.625-47.461L41.625-47.461Q41.906-46.969 42.363-46.617L42.363-46.617L42.363-46.617Q42.891-46.020 43.277-45.527L43.277-45.527L43.313-45.492L43.699-44.859L43.699-44.859Q43.910-44.473 44.121-44.227L44.121-44.227L44.578-43.488L44.578-43.488Q44.719-43.066 45.035-42.469L45.035-42.469L45.598-41.484L45.809-40.922L45.809-40.922Q45.844-40.289 46.230-39.797L46.230-39.797L46.230-39.797Q46.512-38.918 46.688-38.250L46.688-38.250L46.723-38.285L46.863-37.371L47.039-36.457L47.039-36.457Q47.145-35.754 47.215-34.980L47.215-34.980L47.180-34.488L47.180-33.926L47.180-33.926Q47.180-33.328 47.285-32.906L47.285-32.906L47.285-31.746L47.285-31.746Q47.180-31.254 47.180-30.762L47.180-30.762L47.180-30.762Q47.180-30.234 47.285-29.707L47.285-29.707L47.285-27.738L47.285-27.738Q47.250-27.527 47.250-27.281L47.250-27.281L47.250-27.281Q47.250-27.070 47.285-26.859L47.285-26.859L47.285-26.438L47.355-26.367L47.355-26.332L47.285-26.227L47.285-24.750L47.285-24.750Q47.039-24.188 47.039-23.168L47.039-23.168L47.039-22.676L47.039-22.676Q47.074-22.148 47.145-21.516L47.145-21.516L47.215-20.988L47.285-20.496L47.285-20.039L47.320-20.074L47.320-20.004L47.285-20.039L47.285-17.613L47.285-17.613Q47.180-17.367 47.180-17.121L47.180-17.121L47.180-17.121Q47.180-16.875 47.285-16.594L47.285-16.594L47.285-15.504L47.285-15.504Q47.250-15.328 47.250-15.117L47.250-15.117L47.250-15.117Q47.250-14.941 47.285-14.730L47.285-14.730L47.285-14.133L47.285-14.133Q47.320-14.133 47.391-14.098L47.391-14.098L47.391-13.887L47.285-13.887L47.285-12.445L47.285-12.445Q47.250-12.270 47.250-12.059L47.250-12.059L47.250-12.059Q47.250-11.848 47.285-11.637L47.285-11.637L47.285-4.781L47.215-4.359L47.180-3.938ZM53.367-17.121L53.367-17.121Q53.367-17.297 53.332-17.438L53.332-17.438L53.262-17.684L53.262-18.598L53.227-18.598L53.227-18.598Q53.297-18.879 53.297-19.195L53.297-19.195L53.297-19.195Q53.297-19.371 53.262-19.582L53.262-19.582L53.262-21.727L53.262-21.727Q53.438-22.430 53.438-23.133L53.438-23.133L53.438-23.133Q53.438-23.836 53.262-24.574L53.262-24.574L53.262-25.734L53.262-25.734Q53.367-26.016 53.367-26.262L53.367-26.262L53.367-26.262Q53.367-26.508 53.262-26.754L53.262-26.754L53.262-32.660L53.262-32.660Q53.297-32.871 53.297-33.082L53.297-33.082L53.297-33.082Q53.297-33.293 53.262-33.504L53.262-33.504L53.191-33.891L53.156-34.348L53.227-34.277L53.227-34.805L53.227-34.805Q53.297-35.051 53.297-35.262L53.297-35.262L53.297-35.262Q53.297-35.613 53.121-35.965L53.121-35.965L52.980-37.125L52.980-37.125Q52.910-38.355 52.348-40.219L52.348-40.219L52.277-40.430L52.207-40.816L52.137-41.168L52.137-41.168Q52.066-41.520 51.855-41.836L51.855-41.836L51.855-41.836Q51.328-43.383 50.625-44.859L50.625-44.859L50.625-44.859Q50.555-45.070 50.449-45.246L50.449-45.246L50.449-45.246Q49.922-46.230 49.324-47.215L49.324-47.215L49.324-47.215Q49.184-47.637 48.516-48.410L48.516-48.410L48.270-48.762L47.953-49.184L47.988-49.184L47.988-49.184Q47.426-49.922 46.652-50.801L46.652-50.801L46.477-51.012L45.633-51.926L45.633-51.926Q45.352-52.523 44.754-52.770L44.754-52.770L44.754-52.770Q44.156-53.297 43.559-53.789L43.559-53.789L43.313-54.035L43.066-54.246L43.066-54.246Q42.750-54.527 42.469-54.633L42.469-54.633L41.801-55.125L41.695-55.195L40.816-55.758L40.816-55.758Q40.324-56.250 39.656-56.426L39.656-56.426L39.270-56.672L39.270-56.672Q37.898-57.656 36.281-58.008L36.281-58.008L36.176-58.043L36.105-58.043L36.070-58.113L36.070-58.113Q34.840-58.570 33.504-58.922L33.504-58.922L33.504-58.922Q32.695-59.379 31.781-59.379L31.781-59.379L31.781-59.379Q31.605-59.344 31.430-59.344L31.430-59.344L30.410-59.520L30.410-59.520Q29.707-59.836 28.441-59.906L28.441-59.906L28.441-59.906Q28.125-59.941 27.844-59.941L27.844-59.941L27.844-59.941Q27.035-59.941 26.438-59.766L26.438-59.766L25.348-59.766L25.348-59.766Q24.926-59.941 24.398-59.941L24.398-59.941L24.398-59.941Q23.871-59.941 23.273-59.766L23.273-59.766L21.727-59.766L21.727-59.730L21.621-59.730L21.656-59.766L20.180-59.766L20.145-59.695L19.758-59.695L19.723-59.766L18.844-59.766L18.879-59.730L18.668-59.730L18.668-59.730Q17.930-59.660 17.578-59.063L17.578-59.063L17.578-59.063Q17.332-58.676 17.332-58.184L17.332-58.184L17.332-58.184Q17.332-58.008 17.367-57.797L17.367-57.797L17.367-56.848L17.367-56.848Q17.297-56.531 17.297-56.109L17.297-56.109L17.297-55.828L17.332-55.301L17.367-54.809L17.367-52.629L17.367-52.629Q17.332-52.418 17.332-52.207L17.332-52.207L17.332-52.207Q17.332-51.996 17.367-51.785L17.367-51.785L17.367-51.223L17.438-51.188L17.438-51.012L17.367-50.977L17.367-47.777L17.367-47.777Q17.332-47.215 17.332-46.863L17.332-46.863L17.332-46.512L17.332-46.512Q17.332-46.195 17.367-45.949L17.367-45.949L17.367-45.809L17.402-45.809L17.473-45.387L17.367-45.316L17.367-42.750L17.367-42.750Q17.262-42.258 17.262-41.730L17.262-41.730L17.262-41.730Q17.262-41.203 17.367-40.676L17.367-40.676L17.367-37.477L17.438-37.512L17.438-37.020L17.367-37.090L17.367-34.734L17.367-34.734Q17.262-34.383 17.262-33.680L17.262-33.680L17.262-33.293L17.262-33.293Q17.262-32.520 17.367-31.852L17.367-31.852L17.367-27.316L17.156-27.211L17.156-27.211Q16.523-27 16.102-26.789L16.102-26.789L16.102-26.789Q15.539-26.473 15.188-26.086L15.188-26.086L14.801-25.840L14.801-25.699L14.590-25.559L14.484-25.629L14.484-25.629Q12.902-24.574 11.496-23.273L11.496-23.273L11.566-23.273L11.355-23.098L11.355-23.133L10.371-22.184L10.371-22.184Q10.125-21.973 9.914-21.656L9.914-21.656L9.914-21.656Q8.965-20.637 8.156-19.512L8.156-19.512L8.156-19.512Q7.488-18.703 6.434-16.770L6.434-16.770L6.434-16.770Q6.117-16.383 5.977-15.891L5.977-15.891L5.484-14.871L5.484-14.871Q5.203-14.520 4.992-13.852L4.992-13.852L4.816-13.289L4.676-12.762L4.641-12.586L4.500-12.059L4.359-11.637L4.359-11.602L4.289-11.461L4.289-11.461Q3.973-10.441 3.973-10.090L3.973-10.090L3.973-10.020L3.797-9.105L3.797-9.105Q3.375-8.227 3.375-7.172L3.375-7.172L3.375-7.172Q3.375-6.645 3.480-6.082L3.480-6.082L3.445-5.801L3.516-5.801L3.516-5.801Q3.551-5.730 3.551-5.695L3.551-5.695L3.551-5.695Q3.551-5.625 3.480-5.555L3.480-5.555L3.445-5.590L3.445-3.621L3.445-3.621Q3.445-3.270 3.516-2.918L3.516-2.918L3.586-1.969L3.691-1.055L3.691-1.055Q3.797-0.035 4.113 0.738L4.113 0.738L4.219 1.301L4.254 1.336L4.430 2.039L4.430 2.039Q4.500 2.355 4.641 2.637L4.641 2.637L4.641 2.637Q4.992 3.762 5.484 4.922L5.484 4.922L5.484 4.922Q5.941 6.363 6.996 8.016L6.996 8.016L6.996 8.016Q7.770 9.211 9.035 10.758L9.035 10.758L9.035 10.758Q9.211 11.355 9.809 11.602L9.809 11.602L9.773 11.637L9.773 11.637Q11.180 13.184 12.797 14.484L12.797 14.484L12.797 14.484Q13.570 15.223 14.168 15.504L14.168 15.504L15.012 16.066L15.012 16.066Q15.363 16.594 15.996 16.664L15.996 16.664L16.770 17.086L16.770 17.086Q17.156 17.508 18 17.859L18 17.859L18 17.859Q18.738 18.176 19.441 18.316L19.441 18.316L19.441 18.316Q20.250 18.633 20.988 18.844L20.988 18.844L21.059 18.773L21.305 18.844L21.410 18.984L22.500 19.266L22.500 19.266Q22.852 19.477 23.273 19.477L23.273 19.477L23.484 19.477L23.660 19.512L23.625 19.477L23.766 19.477L23.695 19.512L24.504 19.652L24.504 19.652Q24.891 19.793 25.277 19.793L25.277 19.793L25.453 19.793L25.664 19.828L25.664 19.793L25.875 19.793L25.875 19.793Q26.051 19.793 26.297 19.828L26.297 19.828L26.262 19.863L27.035 19.934L27.035 19.934Q27.809 20.004 28.230 20.004L28.230 20.004L28.230 20.004Q28.512 20.004 28.652 19.969L28.652 19.969L29.566 19.934L29.813 19.934L29.813 19.934Q30.164 19.934 30.551 19.863L30.551 19.863L31.500 19.758L31.676 19.758L31.676 19.758Q32.098 19.758 32.520 19.617L32.520 19.617L32.977 19.512L33.117 19.441L33.188 19.477L34.523 19.195L34.488 19.125L34.945 18.984L34.945 19.055L35.438 18.914L35.438 18.879L35.438 18.879Q36.527 18.844 37.441 18.246L37.441 18.246L37.441 18.246Q38.320 17.895 39.023 17.543L39.023 17.543L39.023 17.543Q40.008 17.297 40.887 16.559L40.887 16.559L41.871 15.961L41.871 15.961Q42.961 15.574 43.523 14.801L43.523 14.801L43.523 14.801Q45.492 13.289 47.109 11.391L47.109 11.391L47.109 11.391Q47.707 11.004 47.988 10.371L47.988 10.371L48.621 9.492L48.586 9.457L48.797 9.176L48.797 9.246L48.973 9.035L48.973 9.035Q49.500 8.578 49.676 7.910L49.676 7.910L50.027 7.313L50.027 7.313Q50.414 6.855 50.730 6.152L50.730 6.152L51.223 4.887L51.398 4.535L51.574 4.219L51.574 4.219Q51.785 3.832 51.785 3.480L51.785 3.480L51.785 3.480Q52.102 2.637 52.348 1.758L52.348 1.758L52.348 1.758Q52.559 1.266 52.699 0.598L52.699 0.598L52.770 0L52.875-0.633L52.945-1.090L52.945-1.090Q53.227-2.180 53.227-2.918L53.227-2.918L53.227-2.918Q53.227-3.199 53.191-3.410L53.191-3.410L53.191-3.410Q53.262-4.254 53.262-4.957L53.262-4.957L53.262-5.168L53.297-5.555L53.332-5.977L53.402-6.855L53.402-6.855Q53.438-7.137 53.438-7.348L53.438-7.348L53.438-7.348Q53.438-8.086 53.262-8.543L53.262-8.543L53.262-8.719L53.227-8.684L53.227-8.684Q53.191-8.789 53.191-8.965L53.191-8.965L53.262-8.930L53.262-9.563L53.262-9.563Q53.297-9.809 53.297-10.055L53.297-10.055L53.297-10.055Q53.297-10.301 53.262-10.512L53.262-10.512L53.262-12.270L53.332-12.902L53.332-13.078L53.332-13.078Q53.332-13.359 53.262-13.570L53.262-13.570L53.262-14.449L53.227-14.414L53.227-14.414Q53.332-14.836 53.332-15.152L53.332-15.152L53.332-15.152Q53.332-15.434 53.262-15.609L53.262-15.609L53.262-16.559L53.332-16.805L53.332-16.805Q53.367-16.945 53.367-17.121L53.367-17.121Z"></path><path d="M80.156-14.625L80.156-13.043L80.156-13.043Q80.297-12.621 80.297-11.918L80.297-11.918L80.297-11.602L80.297-11.602Q80.297-11.250 80.227-10.828L80.227-10.828L80.227-10.828Q80.191-10.512 80.156-10.125L80.156-10.125L80.156-9.352L80.086-9.387L80.121-9L80.121-8.895L80.121-8.895Q80.156-8.754 80.156-8.648L80.156-8.648L80.156-8.648Q80.156-8.297 80.016-7.980L80.016-7.980L79.980-7.805L79.980-7.805Q79.840-6.961 79.559-6.152L79.559-6.152L79.559-6.152Q79.277-4.922 78.539-4.078L78.539-4.078L78.434-3.902L78.398-3.902L78.328-3.797L78.258-3.656L78.258-3.656Q77.484-2.180 75.727-1.230L75.727-1.230L75.727-1.230Q75.129-0.809 74.391-0.457L74.391-0.457L74.391-0.457Q72.879 0.563 70.910 0.563L70.910 0.563L70.910 0.563Q70.242 0.563 69.539 0.457L69.539 0.457L69.539 0.457Q68.238 0.352 67.043-0.035L67.043-0.035L67.043-0.035Q66.832-0.070 66.621-0.211L66.621-0.211L66.305-0.316L66.340-0.387L66.270-0.422L66.094-0.457L65.883-0.527L65.883-0.527Q65.391-0.773 64.898-1.055L64.898-1.055L64.969-1.090L64.652-1.301L64.617-1.266L64.617-1.266Q64.160-1.582 63.738-1.969L63.738-1.969L63.738-1.969Q63.211-2.145 63-2.637L63-2.637L62.930-2.742L62.930-2.742Q62.895-2.953 62.719-2.953L62.719-2.953L62.719-2.953Q62.191-3.586 61.734-4.289L61.734-4.289L61.734-4.324L61.734-4.324Q61.734-4.359 61.664-4.395L61.664-4.395L61.242-5.203L61.242-5.203Q60.855-5.625 60.680-6.293L60.680-6.293L60.680-6.293Q60.539-6.715 60.434-7.523L60.434-7.523L60.398-7.770L60.398-7.770Q60.188-8.367 60.188-8.965L60.188-8.965L60.188-8.965Q60.188-9.211 60.223-9.492L60.223-9.492L60.223-13.395L60.223-13.395Q60.012-14.098 60.012-15.363L60.012-15.363L60.012-15.363Q60.012-16.664 60.223-17.297L60.223-17.297L60.223-18.492L60.293-18.527L60.293-18.633L60.223-18.879L60.223-20.250L60.223-20.250Q60.152-20.672 60.152-21.023L60.152-21.023L60.152-21.023Q60.152-21.340 60.223-21.586L60.223-21.586L60.223-23.414L60.293-23.449L60.258-23.660L60.258-24.012L60.223-23.977L60.223-25.523L60.223-25.523Q60.082-26.227 60.082-27.035L60.082-27.035L60.082-27.035Q60.082-27.879 60.223-28.793L60.223-28.793L60.223-29.742L60.152-30.234L60.117-30.727L60.117-30.973L60.117-30.973Q60.117-31.430 60.223-31.711L60.223-31.711L60.223-33.891L60.223-33.891Q60.188-34.137 60.188-34.348L60.188-34.348L60.188-34.348Q60.188-34.559 60.223-34.770L60.223-34.770L60.223-35.789L60.223-35.789Q60.152-36.070 60.152-36.316L60.152-36.316L60.152-36.316Q60.152-36.563 60.223-36.809L60.223-36.809L60.223-37.195L60.293-37.125L60.293-37.406L60.223-37.301L60.223-38.391L60.223-38.391Q60.223-39.023 60.645-39.445L60.645-39.445L60.645-39.445Q61.102-39.902 61.699-39.902L61.699-39.902L62.121-39.902L62.121-39.902Q62.719-40.078 63.563-40.078L63.563-40.078L63.844-40.078L63.844-40.078Q65.004-40.043 65.496-39.656L65.496-39.656L65.496-39.656Q65.883-39.410 66.059-38.988L66.059-38.988L66.059-38.988Q66.340-38.426 66.340-37.371L66.340-37.371L66.340-37.371Q66.340-36.457 66.199-35.684L66.199-35.684L66.199-34.805L66.199-34.805Q66.234-34.594 66.234-34.348L66.234-34.348L66.234-34.348Q66.234-34.137 66.199-33.891L66.199-33.891L66.199-32.660L66.199-32.660Q66.234-32.449 66.234-32.238L66.234-32.238L66.234-32.238Q66.234-32.027 66.199-31.816L66.199-31.816L66.199-29.777L66.199-29.777Q66.375-28.934 66.375-28.090L66.375-28.090L66.375-28.090Q66.375-27.246 66.199-26.438L66.199-26.438L66.199-25.277L66.129-25.207L66.129-24.926L66.199-24.855L66.199-24.820L66.164-24.785L66.164-24.750L66.199-24.715L66.199-24.609L66.199-24.609Q66.340-24.188 66.340-23.625L66.340-23.625L66.340-23.625Q66.340-23.063 66.199-22.359L66.199-22.359L66.199-21.586L66.199-21.586Q66.551-20.109 66.551-18.563L66.551-18.563L66.551-18.563Q66.551-17.016 66.199-15.363L66.199-15.363L66.199-14.344L66.129-14.414L66.129-14.238L66.199-14.309L66.199-13.324L66.199-13.324Q66.270-12.973 66.270-12.691L66.270-12.691L66.270-12.691Q66.270-12.410 66.199-12.199L66.199-12.199L66.199-10.969L66.234-10.512L66.199-10.055L66.199-9.281L66.199-9.281Q66.305-8.508 66.727-7.805L66.727-7.805L66.727-7.805Q66.867-7.559 67.113-7.172L67.113-7.172L67.359-6.855L67.570-6.504L67.570-6.504Q67.922-6.188 68.344-5.941L68.344-5.941L68.344-5.941Q68.379-5.871 68.449-5.871L68.449-5.871L68.520-5.871L68.977-5.695L68.977-5.695Q69.715-5.625 70.453-5.520L70.453-5.520L70.945-5.590L70.805-5.520L71.051-5.590L71.332-5.695L72.035-5.977L72.035-5.977Q72.773-6.363 73.266-6.996L73.266-6.996L73.336-6.926L73.336-6.926Q73.441-7.066 73.477-7.242L73.477-7.242L73.512-7.313L73.512-7.313Q73.582-7.594 73.688-7.980L73.688-7.980L73.828-8.684L73.828-8.684Q73.969-9.563 74.180-9.984L74.180-9.984L74.180-11.742L74.109-12.059L74.074-12.340L74.074-12.480L74.074-12.480Q74.074-12.762 74.180-12.973L74.180-12.973L74.180-14.027L74.180-14.027Q74.109-14.273 74.109-14.484L74.109-14.484L74.109-14.484Q74.109-14.730 74.180-14.941L74.180-14.941L74.180-15.715L74.215-15.785L74.215-15.785Q74.109-16.207 74.109-16.523L74.109-16.523L74.109-16.523Q74.109-16.770 74.180-16.945L74.180-16.945L74.180-17.859L74.215-17.824L74.215-17.824Q74.109-18.211 74.109-18.492L74.109-18.492L74.109-18.492Q74.109-18.703 74.180-18.879L74.180-18.879L74.180-19.969L74.180-19.969Q74.004-20.320 74.004-21.129L74.004-21.129L74.004-21.410L74.004-21.410Q74.004-22.359 74.180-22.887L74.180-22.887L74.180-23.977L74.180-23.977Q74.074-24.328 74.074-24.891L74.074-24.891L74.074-25.172L74.109-25.770L74.180-26.367L74.180-32.871L74.180-32.871Q74.039-33.223 74.039-33.820L74.039-33.820L74.109-34.277L74.180-34.770L74.180-36.879L74.180-36.879Q74.109-37.125 74.109-37.406L74.109-37.406L74.109-37.406Q74.109-37.688 74.180-38.004L74.180-38.004L74.180-38.391L74.180-38.391Q74.180-38.813 74.391-39.164L74.391-39.164L74.391-39.164Q74.531-39.480 74.848-39.656L74.848-39.656L74.848-39.656Q75.234-39.902 75.656-39.902L75.656-39.902L78.645-39.902L78.645-39.902Q78.961-39.902 79.207-39.762L79.207-39.762L79.207-39.762Q80.051-39.621 80.191-38.672L80.191-38.672L80.191-38.672Q80.227-38.426 80.227-38.145L80.227-38.145L80.227-37.863L80.191-37.441L80.156-37.090L80.156-36.352L80.051-36.563L80.051-36.352L80.051-36.352Q80.051-36.141 80.086-35.930L80.086-35.930L80.156-35.895L80.156-34.559L80.121-34.523L80.121-34.383L80.156-34.348L80.156-32.906L80.156-32.906Q80.227-32.730 80.227-32.449L80.227-32.449L80.227-32.449Q80.227-32.168 80.156-31.781L80.156-31.781L80.156-31.008L80.156-31.008Q80.191-30.762 80.191-30.445L80.191-30.445L80.191-30.445Q80.191-30.129 80.156-29.777L80.156-29.777L80.156-27.914L80.156-27.914Q80.227-27.703 80.227-27.457L80.227-27.457L80.227-27.281L80.156-26.648L80.156-22.535L80.156-22.535Q80.016-22.500 80.016-22.395L80.016-22.395L80.016-22.324L80.156-22.184L80.156-20.988L80.156-20.988Q80.227-20.707 80.227-20.355L80.227-20.355L80.191-20.074L80.156-19.758L80.156-18.352L80.156-18.352Q80.191-17.859 80.191-17.402L80.191-17.402L80.191-17.402Q80.191-16.980 80.156-16.629L80.156-16.629L80.156-16.629Q80.156-15.117 80.121-15.117L80.121-15.117L80.156-14.625Z"></path><path d="M106.699-10.512L106.699-9.949L106.699-9.949Q106.699-9.457 106.664-8.965L106.664-8.965L106.664-8.965Q106.699-8.754 106.699-8.543L106.699-8.543L106.699-8.543Q106.699-8.121 106.488-7.699L106.488-7.699L106.348-7.207L106.348-7.102L106.348-7.102Q106.348-6.398 105.891-5.871L105.891-5.871L105.891-5.871Q105.574-5.098 105.117-4.395L105.117-4.395L105.117-4.395Q104.730-3.270 103.219-2.145L103.219-2.145L103.219-2.145Q102.621-1.617 102.023-1.230L102.023-1.230L101.953-1.301L101.953-1.301Q101.813-1.230 101.707-1.160L101.707-1.160L101.777-1.055L101.320-0.809L101.320-0.809Q100.898-0.387 100.055-0.105L100.055-0.105L100.055-0.105Q99.316 0.141 98.613 0.141L98.613 0.141L98.613 0.141Q98.121 0.246 97.629 0.281L97.629 0.281L97.629 0.281Q97.172 0.457 96.645 0.457L96.645 0.457L96.645 0.457Q96.082 0.457 95.449 0.246L95.449 0.246L95.133 0.176L95.168 0.141L94.957 0.105L94.957 0.141L94.957 0.141Q93.867-0.035 92.883-0.457L92.883-0.457L92.813-0.598L92.742-0.527L92.742-0.527Q92.215-0.738 91.723-1.055L91.723-1.055L91.723-1.055Q91.125-1.125 90.809-1.652L90.809-1.652L90.668-1.758L90.633-1.863L90.527-1.969L90.527-1.969Q90.492-2.004 90.457-2.004L90.457-2.004L90.457-2.004Q90.422-2.004 90.387-1.969L90.387-1.969L90.387-1.969Q89.191-2.953 88.418-4.043L88.418-4.043L88.418-4.043Q87.469-5.379 87.258-6.645L87.258-6.645L87.082-7.242L87.082-7.242Q86.977-7.629 86.941-7.910L86.941-7.910L86.941-8.121L86.941-8.121Q86.941-8.719 87.293-9.141L87.293-9.141L87.293-9.141Q87.469-9.598 88.031-9.598L88.031-9.598L88.031-9.598Q88.207-9.633 88.418-9.633L88.418-9.633L88.594-9.633L88.559-9.598L88.559-9.563L88.559-9.563Q88.734-9.563 88.910-9.598L88.910-9.598L88.840-9.633L89.859-9.633L89.859-9.633Q90.422-9.703 90.844-9.738L90.844-9.738L90.844-9.738Q91.406-9.738 91.758-9.598L91.758-9.598L91.758-9.598Q92.426-9.492 92.742-8.930L92.742-8.930L92.742-8.930Q93.164-8.438 93.234-7.770L93.234-7.770L93.270-7.734L93.270-7.734Q93.762-6.820 94.641-6.258L94.641-6.258L94.641-6.258Q95.344-5.941 96.363-5.695L96.363-5.695L96.363-5.695Q96.574-5.660 96.750-5.660L96.750-5.660L96.750-5.660Q98.859-5.660 100.406-8.156L100.406-8.156L100.406-8.156Q100.723-8.930 100.723-9.914L100.723-9.914L100.723-9.914Q100.723-10.301 100.688-10.723L100.688-10.723L100.512-11.496L100.336-12.305L100.336-12.305Q100.160-12.762 99.914-13.219L99.914-13.219L99.914-13.219Q99.527-13.605 99.316-14.133L99.316-14.133L99.316-14.133Q99-14.555 98.332-15.117L98.332-15.117L97.277-16.031L96.434-16.664L96.539-16.629L96.539-16.664L96.539-16.664Q94.219-17.824 92.918-19.125L92.918-19.125L92.918-19.125Q92.039-19.793 91.301-20.461L91.301-20.461L91.301-20.461Q90.879-20.707 90.598-21.094L90.598-21.094L89.754-22.043L89.754-22.043Q88.137-23.801 87.645-25.594L87.645-25.594L87.363-26.508L87.082-27.387L87.082-27.387Q86.836-28.266 86.836-28.969L86.836-28.969L86.836-29.285L86.836-29.285Q86.801-29.848 86.801-30.410L86.801-30.410L86.801-30.410Q86.766-30.762 86.766-31.078L86.766-31.078L86.766-31.078Q86.766-31.781 86.977-32.238L86.977-32.238L86.977-32.238Q87.117-32.836 87.293-33.469L87.293-33.469L87.293-33.469Q87.363-33.750 87.469-33.996L87.469-33.996L87.469-33.996Q88.102-35.613 89.156-36.914L89.156-36.914L89.156-36.914Q89.227-36.879 89.262-36.879L89.262-36.879L89.262-36.879Q89.297-36.879 89.332-36.914L89.332-36.914L89.473-37.090L89.367-37.125L89.824-37.652L89.824-37.652Q90.281-38.355 91.266-39.059L91.266-39.059L91.266-39.059Q92.285-39.762 93.094-39.832L93.094-39.832L93.094-39.832Q93.516-40.008 93.973-40.113L93.973-40.113L93.973-40.113Q94.395-40.430 94.887-40.430L94.887-40.430L94.887-40.430Q95.027-40.430 95.168-40.395L95.168-40.395L95.168-40.395Q95.730-40.500 96.328-40.535L96.328-40.535L96.434-40.430L96.609-40.430L96.645-40.535L97.066-40.535L97.277-40.500L97.770-40.500L97.770-40.500Q99.176-40.500 99.984-40.008L99.984-40.008L99.984-40.008Q100.441-39.832 100.934-39.621L100.934-39.621L100.934-39.621Q101.566-39.480 102.023-39.023L102.023-39.023L102.340-38.813L102.340-38.813Q103.887-37.969 105.223-35.789L105.223-35.789L105.223-35.789Q105.820-35.051 106.277-33.961L106.277-33.961L106.277-33.961Q106.664-33.047 106.664-32.414L106.664-32.414L106.664-32.414Q106.664-32.168 106.594-31.957L106.594-31.957L106.594-31.957Q106.559-31.535 106.277-31.254L106.277-31.254L106.031-31.008L106.031-31.008Q105.855-30.867 105.750-30.727L105.750-30.727L105.750-30.727Q105.434-30.586 105.082-30.586L105.082-30.586L104.484-30.586L104.484-30.586Q103.992-30.410 103.465-30.410L103.465-30.410L103.465-30.410Q102.973-30.410 102.445-30.586L102.445-30.586L101.988-30.586L101.988-30.586Q101.250-30.586 100.793-31.219L100.793-31.219L100.793-31.219Q100.512-31.430 100.266-32.098L100.266-32.098L100.090-32.625L100.090-32.625Q99.949-32.906 99.809-33.082L99.809-33.082L99.809-33.082Q99.527-33.434 99.070-33.750L99.070-33.750L98.648-33.996L98.227-34.277L98.227-34.277Q97.523-34.559 96.785-34.559L96.785-34.559L96.785-34.559Q96.539-34.559 96.258-34.523L96.258-34.523L96.258-34.523Q94.465-34.277 93.445-32.730L93.445-32.730L93.445-32.730Q92.988-31.816 92.777-30.094L92.777-30.094L92.777-30.094Q92.813-29.285 92.988-28.617L92.988-28.617L92.988-28.617Q93.129-28.230 93.234-27.809L93.234-27.809L93.340-27.492L93.340-27.492Q93.445-27.211 93.586-26.965L93.586-26.965L93.586-26.965Q93.832-26.543 94.148-26.086L94.148-26.086L94.148-26.086Q94.254-26.016 94.395-25.805L94.395-25.805L94.676-25.453L94.676-25.453Q95.027-25.031 95.273-24.926L95.273-24.926L95.906-24.398L95.871-24.328L95.871-24.328Q96.047-24.152 96.293-24.082L96.293-24.082L96.328-24.047L96.328-24.047Q96.926-23.906 97.242-23.379L97.242-23.379L98.332-22.641L99.457-21.867L99.738-21.621L99.773-21.656L100.512-21.129L100.512-21.129Q100.969-20.918 101.250-20.566L101.250-20.566L101.250-20.566Q102.340-19.688 103.148-18.844L103.148-18.844L103.359-18.633L103.359-18.633Q103.957-17.965 104.590-16.910L104.590-16.910L105.117-16.031L105.645-15.117L105.645-15.117Q106.523-13.184 106.664-10.828L106.664-10.828L106.629-10.828L106.699-10.512Z"></path><path d="M131.273-37.723L131.273-36.809L131.273-36.809Q131.309-36.598 131.309-36.352L131.309-36.352L131.309-36.352Q131.309-36.141 131.273-35.895L131.273-35.895L131.273-35.438L131.273-35.438Q131.273-34.840 130.816-34.383L130.816-34.383L130.816-34.383Q130.395-33.961 129.762-33.961L129.762-33.961L129.164-33.961L129.164-33.961Q128.918-33.891 128.637-33.891L128.637-33.891L128.637-33.891Q128.355-33.891 128.039-33.961L128.039-33.961L127.055-33.961L127.055-33.961Q126.703-33.891 126.422-33.891L126.422-33.891L126.422-33.891Q126.176-33.891 125.965-33.961L125.965-33.961L125.332-33.961L125.297-33.926L125.297-31.605L125.227-31.605L125.227-31.605Q125.402-30.656 125.438-29.953L125.438-29.953L125.438-29.953Q125.473-29.707 125.473-29.496L125.473-29.496L125.473-29.496Q125.473-28.828 125.297-28.336L125.297-28.336L125.297-26.859L125.332-26.227L125.402-25.594L125.402-25.594Q125.438-25.383 125.438-25.172L125.438-25.172L125.438-25.172Q125.438-24.680 125.297-24.363L125.297-24.363L125.297-24.012L125.191-24.082L125.191-23.555L125.297-23.625L125.297-23.309L125.297-23.309Q125.262-23.273 125.262-23.238L125.262-23.238L125.297-23.203L125.297-19.230L125.297-19.230Q125.332-18.984 125.332-18.668L125.332-18.668L125.297-18.105L125.297-16.488L125.227-16.453L125.227-16.453Q125.297-16.207 125.297-15.926L125.297-15.926L125.297-15.926Q125.297-15.715 125.262-15.504L125.262-15.504L125.227-15.082L125.227-14.590L125.297-14.590L125.297-13.113L125.297-13.113Q125.332-12.902 125.332-12.691L125.332-12.691L125.332-12.691Q125.332-12.480 125.297-12.305L125.297-12.305L125.297-11.320L125.297-11.320Q125.473-10.652 125.473-9.738L125.473-9.738L125.473-9.457L125.473-9.457Q125.473-8.613 125.297-8.156L125.297-8.156L125.297-6.855L125.297-6.855Q125.332-6.539 125.332-6.188L125.332-6.188L125.332-6.188Q125.332-5.836 125.297-5.414L125.297-5.414L125.297-4.078L125.297-4.078Q125.402-3.902 125.402-3.621L125.402-3.621L125.402-3.621Q125.402-3.340 125.297-2.953L125.297-2.953L125.297-1.582L125.262-1.301L125.227-1.301L125.191-1.055L125.156-1.020L125.156-1.020Q124.980-0.422 124.383-0.141L124.383-0.141L124.383-0.141Q124.066 0 123.750 0L123.750 0L123.750 0Q123.504 0 123.258-0.070L123.258-0.070L120.797-0.070L120.797-0.070Q120.480-0.070 120.199-0.211L120.199-0.211L120.199-0.211Q119.566-0.352 119.320-0.984L119.320-0.984L119.320-0.984Q119.215-1.301 119.215-1.652L119.215-1.652L119.215-1.652Q119.215-1.898 119.285-2.180L119.285-2.180L119.285-3.023L119.285-3.023Q119.180-3.375 119.180-3.762L119.180-3.762L119.180-3.762Q119.180-3.973 119.215-4.184L119.215-4.184L119.285-4.781L119.391-5.379L119.285-5.344L119.285-6.891L119.320-6.891L119.355-6.961L119.355-6.961Q119.215-7.453 119.215-7.805L119.215-7.805L119.215-7.805Q119.215-8.051 119.285-8.191L119.285-8.191L119.285-10.090L119.320-10.090L119.320-10.090Q119.250-10.477 119.250-10.793L119.250-10.793L119.250-10.793Q119.250-11.004 119.285-11.180L119.285-11.180L119.285-11.672L119.355-11.637L119.320-12.270L119.250-12.902L119.250-12.902Q119.215-13.219 119.215-13.465L119.215-13.465L119.215-13.465Q119.215-13.887 119.285-14.203L119.285-14.203L119.285-17.859L119.285-17.859Q119.355-17.824 119.391-17.824L119.391-17.824L119.391-17.824Q119.391-18 119.355-18.176L119.355-18.176L119.285-18.422L119.285-18.422Q119.109-19.266 119.109-20.531L119.109-20.531L119.109-20.988L119.109-20.988Q119.145-21.586 119.180-22.324L119.180-22.324L119.180-22.324Q119.215-22.816 119.285-23.555L119.285-23.555L119.285-23.555Q119.285-25.488 119.320-25.488L119.320-25.488L119.250-26.297L119.250-27.422L119.250-27.422Q119.250-28.090 119.355-28.652L119.355-28.652L119.355-28.652Q119.355-28.688 119.320-28.688L119.320-28.688L119.285-28.652L119.285-31.465L119.355-31.500L119.285-31.500L119.285-32.133L119.355-32.133L119.355-32.414L119.285-32.449L119.285-33.961L117.527-33.961L117.527-33.961Q117.141-33.855 116.543-33.820L116.543-33.820L116.543-33.820Q116.227-33.785 115.875-33.785L115.875-33.785L115.875-33.785Q115.559-33.785 115.242-33.820L115.242-33.820L115.242-33.820Q113.660-33.996 113.484-34.805L113.484-34.805L113.484-34.805Q113.309-35.121 113.309-35.438L113.309-35.438L113.309-36.949L113.309-36.949Q113.168-37.301 113.168-37.793L113.168-37.793L113.168-38.004L113.168-38.004Q113.203-38.707 113.449-39.059L113.449-39.059L113.449-39.059Q113.730-39.656 114.363-39.867L114.363-39.867L114.363-39.867Q114.715-40.043 115.348-40.043L115.348-40.043L115.348-40.043Q115.910-40.043 116.367-39.938L116.367-39.938L116.578-39.938L116.543-39.902L117-39.902L117-39.938L117.211-39.938L117.211-39.938Q117.668-40.078 118.125-40.078L118.125-40.078L118.125-40.078Q118.617-40.078 119.145-39.938L119.145-39.938L119.426-39.938L119.531-39.832L119.637-39.832L119.672-39.938L120.586-39.938L120.551-39.902L121.078-39.938L121.289-39.938L121.289-39.938Q121.500-39.973 121.711-39.973L121.711-39.973L121.711-39.973Q121.922-39.973 122.133-39.938L122.133-39.938L122.730-39.938L122.801-39.867L122.801-39.938L123.434-39.938L123.434-39.938Q123.926-40.043 124.629-40.043L124.629-40.043L124.980-40.043L125.789-39.973L126.563-39.938L128.250-39.938L128.250-39.938Q128.461-40.043 128.742-40.043L128.742-40.043L128.742-40.043Q129.059-40.043 129.410-39.938L129.410-39.938L129.762-39.938L129.762-39.938Q130.746-39.938 131.133-39.023L131.133-39.023L131.133-39.023Q131.309-38.813 131.309-38.426L131.309-38.426L131.309-38.426Q131.309-38.145 131.203-37.723L131.203-37.723L131.273-37.723Z"></path><path d="M144.949-37.195L144.949-37.125L144.949-37.125Q144.879-37.020 144.879-36.914L144.879-36.914L144.879-36.914Q144.879-36.844 144.914-36.738L144.914-36.738L144.914-36.738Q144.703-35.227 143.402-34.418L143.402-34.418L143.438-34.488L143.297-34.418L143.332-34.418L143.332-34.418Q142.559-33.961 141.680-33.961L141.680-33.961L141.293-33.961L141.293-33.961Q139.781-33.961 138.797-35.684L138.797-35.684L138.797-35.684Q138.270-36.563 138.270-37.301L138.270-37.301L138.270-37.301Q138.270-38.074 138.832-38.672L138.832-38.672L138.832-38.672Q139.359-39.691 140.379-40.148L140.379-40.148L140.344-40.078L140.590-40.184L140.590-40.219L141.012-40.359L141.012-40.359Q141.328-40.500 141.715-40.500L141.715-40.500L141.715-40.500Q142.137-40.500 142.594-40.324L142.594-40.324L142.594-40.324Q143.367-40.078 143.965-39.516L143.965-39.516L143.965-39.516Q144.387-39.199 144.633-38.742L144.633-38.742L144.633-38.742Q144.879-38.320 144.879-37.934L144.879-37.934L144.879-37.758L144.879-37.758Q144.949-37.477 144.949-37.195L144.949-37.195ZM144.809-27.492L144.809-27.492L144.809-27.492Q144.809-27.281 144.773-27.105L144.773-27.105L144.703-26.824L144.703-26.016L144.703-26.016Q144.738-25.805 144.738-25.559L144.738-25.559L144.738-25.559Q144.738-25.277 144.668-24.961L144.668-24.961L144.703-24.996L144.703-23.941L144.703-23.941Q144.844-23.449 144.844-22.465L144.844-22.465L144.844-22.465Q144.844-21.480 144.703-20.988L144.703-20.988L144.703-19.266L144.668-19.090L144.633-18.949L144.703-18.984L144.703-18.141L144.668-18.176L144.598-18.105L144.633-17.895L144.633-17.895Q144.668-17.754 144.668-17.578L144.668-17.578L144.703-17.578L144.703-14.871L144.668-14.871L144.703-14.203L144.703-14.203Q144.703-13.746 144.668-13.711L144.668-13.711L144.738-12.797L144.738-12.445L144.738-12.445Q144.738-12.129 144.703-11.883L144.703-11.883L144.703-11.074L144.703-11.074Q144.738-10.863 144.738-10.582L144.738-10.582L144.738-10.582Q144.738-10.266 144.703-9.879L144.703-9.879L144.703-9.246L144.703-9.246Q144.773-8.578 144.773-8.016L144.773-8.016L144.773-8.016Q144.773-7.453 144.703-6.961L144.703-6.961L144.703-6.961Q144.703-5.238 144.668-5.238L144.668-5.238L144.703-5.203L144.703-5.063L144.703-5.063Q144.879-4.570 144.879-3.551L144.879-3.551L144.879-2.918L144.879-2.918Q144.844-1.301 144.492-0.844L144.492-0.844L144.492-0.844Q144.281-0.492 143.965-0.281L143.965-0.281L143.965-0.281Q143.684-0.035 142.945-0.035L142.945-0.035L142.945-0.035Q142.699-0.035 142.383-0.070L142.383-0.070L141.820-0.070L141.328-0.035L140.871-0.070L140.203-0.070L140.203-0.070Q139.887-0.070 139.605-0.176L139.605-0.176L139.605-0.176Q139.008-0.316 138.867-0.914L138.867-0.914L138.867-0.914Q138.727-1.230 138.727-1.582L138.727-1.582L138.727-2.109L138.727-2.109Q138.586-2.496 138.586-3.023L138.586-3.023L138.586-3.234L138.656-3.832L138.727-4.395L138.727-6.961L138.656-7.277L138.621-7.664L138.551-8.508L138.551-8.789L138.551-8.789Q138.551-9.563 138.727-10.055L138.727-10.055L138.727-10.512L138.797-10.441L138.797-10.441Q138.797-10.652 138.762-10.863L138.762-10.863L138.727-10.863L138.727-11.074L138.727-11.074Q138.551-11.566 138.551-12.586L138.551-12.586L138.551-12.586Q138.551-13.570 138.727-14.098L138.727-14.098L138.727-20.039L138.727-20.039Q138.656-20.285 138.656-20.496L138.656-20.496L138.656-20.496Q138.656-20.742 138.727-20.953L138.727-20.953L138.727-23.238L138.727-23.238Q138.762-23.344 138.762-23.414L138.762-23.414L138.762-23.414Q138.762-23.520 138.727-23.555L138.727-23.555L138.727-23.695L138.656-24.047L138.621-24.328L138.621-24.469L138.621-24.469Q138.621-24.750 138.727-24.996L138.727-24.996L138.727-25.770L138.797-25.805L138.762-26.016L138.762-26.262L138.727-26.262L138.727-27.035L138.727-27.035Q138.691-27.211 138.691-27.387L138.691-27.387L138.691-27.387Q138.691-27.598 138.727-27.773L138.727-27.773L138.727-29.109L138.727-29.109Q138.691-29.285 138.691-29.461L138.691-29.461L138.691-29.461Q138.691-29.848 138.938-30.234L138.938-30.234L138.938-30.234Q139.359-30.973 140.203-30.973L140.203-30.973L140.625-30.973L140.625-30.973Q140.836-31.008 141.047-31.008L141.047-31.008L141.609-31.008L141.926-30.973L143.121-30.973L143.086-30.938L143.191-30.938L143.156-30.973L143.191-30.973L143.191-30.973Q143.824-30.973 144.246-30.516L144.246-30.516L144.246-30.516Q144.703-30.094 144.703-29.461L144.703-29.461L144.703-29.461Q144.703-28.020 144.668-28.020L144.668-28.020L144.773-27.809L144.773-27.809Q144.809-27.668 144.809-27.492Z"></path><path d="M171.492-22.711L171.492-17.156L171.492-17.156Q171.422-17.121 171.422-17.051L171.422-17.051L171.422-17.051Q171.422-16.980 171.492-16.910L171.492-16.910L171.492-15.996L171.422-15.926L171.422-15.891L171.492-15.785L171.492-15.398L171.492-15.398Q171.527-15.293 171.527-15.117L171.527-15.117L171.527-15.117Q171.527-14.836 171.422-14.379L171.422-14.379L171.457-14.344L171.492-14.449L171.492-12.480L171.492-12.480Q171.598-12.234 171.598-11.988L171.598-11.988L171.598-11.988Q171.598-11.742 171.492-11.461L171.492-11.461L171.492-11.355L171.457-11.355L171.457-11.355Q171.422-11.215 171.422-11.004L171.422-11.004L171.492-10.969L171.492-10.547L171.422-10.512L171.387-9.844L171.457-9.633L171.492-9.668L171.492-9.316L171.422-9.316L171.422-9.316Q171.422-9.141 171.457-8.930L171.457-8.930L171.492-8.789L171.492-8.367L171.492-8.367Q171.598-7.910 171.598-7.242L171.598-7.242L171.563-6.680L171.492-6.152L171.492-4.078L171.563-3.656L171.598-3.199L171.598-2.988L171.598-2.988Q171.598-2.566 171.492-2.320L171.492-2.320L171.492-1.723L171.492-1.723Q171.492-1.371 171.316-1.020L171.316-1.020L171.316-1.020Q171.211-0.527 170.719-0.422L170.719-0.422L170.719-0.422Q170.367-0.246 170.016-0.246L170.016-0.246L169.559-0.246L169.559-0.246Q169.383-0.141 169.137-0.141L169.137-0.141L169.137-0.141Q168.891-0.141 168.574-0.246L168.574-0.246L167.168-0.246L167.273-0.316L167.273-0.316Q167.133-0.316 167.027-0.281L167.027-0.281L166.852-0.246L166.852-0.246Q166.641-0.141 166.465-0.141L166.465-0.141L166.465-0.141Q166.219-0.141 165.973-0.316L165.973-0.316L165.973-0.316Q165.797-0.352 165.656-0.457L165.656-0.457L165.691-0.457L165.516-0.598L165.445-0.668L165.445-0.668Q165.340-0.738 165.305-0.773L165.305-0.773L165.270-0.773L165.199-0.879L165.199-0.879Q164.918-1.125 164.672-1.723L164.672-1.723L164.672-1.723Q164.496-2.215 164.496-2.566L164.496-2.566L164.496-2.672L164.074-3.832L164.074-3.832Q163.512-4.922 163.441-5.695L163.441-5.695L162.387-8.684L162.387-8.684Q162.246-9 162.176-9.352L162.176-9.352L161.191-12.094L161.051-12.375L160.910-12.656L160.910-12.656Q160.770-13.008 160.770-13.289L160.770-13.289L160.313-14.625L159.785-16.172L159.785-16.172Q159.539-16.523 159.363-17.121L159.363-17.121L159.223-17.613L159.117-18.105L158.695-19.301L158.695-19.301Q158.590-19.512 158.414-19.898L158.414-19.898L158.133-20.531L158.133-20.531Q157.816-21.305 157.816-21.797L157.816-21.797L157.570-22.500L157.570-21.902L157.570-21.902Q157.676-21.691 157.676-21.445L157.676-21.445L157.676-21.445Q157.676-21.234 157.570-20.988L157.570-20.988L157.570-20.496L157.570-20.496Q157.535-20.531 157.500-20.531L157.500-20.531L157.500-20.531Q157.465-20.531 157.465-20.461L157.465-20.461L157.465-20.461Q157.465-20.426 157.500-20.320L157.500-20.320L157.570-20.355L157.570-19.160L157.605-18.773L157.605-18.492L157.605-18.492Q157.605-18.246 157.570-18.070L157.570-18.070L157.570-18.070Q157.570-15.223 157.535-15.223L157.535-15.223L157.535-15.223Q157.605-14.871 157.605-14.520L157.605-14.520L157.605-14.520Q157.605-14.238 157.570-13.922L157.570-13.922L157.570-11.813L157.570-11.813Q157.535-11.848 157.500-11.848L157.500-11.848L157.465-11.848L157.465-11.391L157.570-11.461L157.570-5.309L157.570-5.309Q157.641-4.957 157.641-4.676L157.641-4.676L157.641-4.676Q157.641-4.395 157.570-4.219L157.570-4.219L157.570-3.129L157.570-3.129Q157.676-2.813 157.676-2.426L157.676-2.426L157.676-2.426Q157.676-2.250 157.641-2.039L157.641-2.039L157.641-2.039Q157.605-1.336 157.359-0.984L157.359-0.984L157.359-0.984Q157.148-0.668 156.832-0.457L156.832-0.457L156.832-0.457Q156.234 0 154.863 0L154.863 0L154.863 0Q154.477 0 154.020-0.035L154.020-0.035L154.020-0.035Q151.910-0.211 151.699-1.160L151.699-1.160L151.699-1.160Q151.594-1.441 151.594-1.723L151.594-1.723L151.594-1.723Q151.594-2.074 151.523-2.602L151.523-2.602L151.488-3.094L151.418-3.551L151.418-3.551Q151.383-3.867 151.383-4.148L151.383-4.148L151.383-4.148Q151.383-4.887 151.594-5.309L151.594-5.309L151.594-6.363L151.594-6.363Q151.488-6.645 151.488-6.891L151.488-6.891L151.488-6.891Q151.488-7.137 151.594-7.383L151.594-7.383L151.594-7.664L151.594-7.664Q151.664-7.734 151.664-7.805L151.664-7.805L151.664-7.805Q151.664-7.875 151.594-7.910L151.594-7.910L151.594-8.508L151.594-8.508Q151.523-8.895 151.523-9.352L151.523-9.352L151.523-9.352Q151.523-9.809 151.594-10.301L151.594-10.301L151.594-11.566L151.594-11.566Q151.523-11.777 151.523-12.059L151.523-12.059L151.594-12.586L151.594-14.098L151.664-14.063L151.664-14.273L151.594-14.168L151.594-15.609L151.594-15.609Q151.559-15.820 151.559-16.031L151.559-16.031L151.559-16.031Q151.559-16.277 151.594-16.488L151.594-16.488L151.594-17.543L151.594-17.543Q151.488-17.965 151.488-18.527L151.488-18.527L151.488-18.844L151.559-19.512L151.594-20.145L151.594-20.742L151.664-20.777L151.699-20.988L151.629-20.953L151.699-21.023L151.699-21.129L151.594-21.234L151.594-21.797L151.594-21.797Q151.418-22.254 151.418-23.027L151.418-23.027L151.418-23.273L151.418-23.273Q151.418-24.082 151.594-24.785L151.594-24.785L151.594-30.445L151.664-30.516L151.664-30.656L151.594-30.762L151.594-31.922L151.594-31.922Q151.453-32.414 151.453-32.906L151.453-32.906L151.453-32.906Q151.453-33.434 151.594-33.961L151.594-33.961L151.594-35.227L151.594-35.227Q151.559-35.438 151.559-35.648L151.559-35.648L151.559-35.648Q151.559-35.859 151.594-36.070L151.594-36.070L151.594-36.809L151.523-37.230L151.488-37.688L151.488-38.074L151.488-38.074Q151.488-38.426 151.523-38.707L151.523-38.707L151.523-38.707Q151.664-39.902 152.613-40.008L152.613-40.008L152.613-40.008Q152.859-40.113 153.070-40.113L153.070-40.113L153.422-40.113L153.422-40.113Q153.914-40.254 154.371-40.254L154.371-40.254L154.371-40.254Q154.828-40.254 155.285-40.113L155.285-40.113L155.637-40.113L155.672-40.008L155.883-40.008L155.953-40.043L155.918-40.113L156.340-40.113L156.340-40.113Q156.445-40.148 156.586-40.148L156.586-40.148L156.586-40.148Q156.797-40.148 157.008-40.043L157.008-40.043L157.008-40.043Q157.254-40.008 157.465-39.867L157.465-39.867L157.395-39.797L157.395-39.797Q157.711-39.586 157.922-39.234L157.922-39.234L157.992-39.305L158.098-39.094L158.273-38.602L158.273-38.602Q158.871-37.828 159.504-35.895L159.504-35.895L159.504-35.895Q160.031-34.313 160.242-32.941L160.242-32.941L160.980-30.762L160.980-30.762Q161.227-30.410 161.438-29.742L161.438-29.742L161.578-29.180L161.719-28.652L161.859-28.336L162.105-27.773L162.316-27.246L162.316-27.246Q162.598-26.578 162.633-26.051L162.633-26.051L162.984-25.066L162.984-25.066Q163.266-24.680 163.441-24.047L163.441-24.047L163.617-23.484L163.758-22.922L163.934-22.430L163.934-22.430Q164.918-20.250 165.234-18.668L165.234-18.668L165.375-18.246L165.234-18.211L165.234-18.105L165.445-18.105L165.516-17.824L165.516-18.105L165.656-18.105L165.586-18.141L165.516-18.211L165.516-19.336L165.516-19.336Q165.445-19.512 165.445-19.793L165.445-19.793L165.445-19.793Q165.445-20.074 165.516-20.461L165.516-20.461L165.516-21.164L165.516-21.164Q165.445-21.621 165.445-22.184L165.445-22.184L165.445-22.184Q165.445-22.781 165.516-23.449L165.516-23.449L165.516-24.082L165.445-24.645L165.410-25.207L165.410-25.453L165.410-25.453Q165.410-25.945 165.516-26.297L165.516-26.297L165.516-27L165.586-26.930L165.586-27.176L165.516-27.070L165.516-28.055L165.516-28.055Q165.480-28.371 165.480-28.723L165.480-28.723L165.480-28.723Q165.480-29.039 165.516-29.391L165.516-29.391L165.516-29.988L165.480-30.305L165.410-30.586L165.410-30.586Q165.410-30.902 165.516-31.184L165.516-31.184L165.516-33.082L165.516-33.082Q165.445-33.363 165.445-33.645L165.445-33.645L165.445-33.645Q165.445-33.961 165.516-34.242L165.516-34.242L165.516-34.242Q165.516-34.313 165.551-34.313L165.551-34.313L165.551-34.488L165.516-34.488L165.516-35.438L165.480-35.648L165.410-36.176L165.410-36.176Q165.340-36.844 165.340-37.371L165.340-37.371L165.340-37.582L165.340-37.582Q165.340-38.848 165.727-39.340L165.727-39.340L165.727-39.340Q166.148-40.113 167.027-40.113L167.027-40.113L167.520-40.113L167.520-40.113Q168.082-40.184 168.609-40.254L168.609-40.254L169.066-40.254L169.066-40.254Q169.488-40.254 169.840-40.219L169.840-40.219L169.840-40.219Q171.316-40.008 171.457-38.953L171.457-38.953L171.492-38.602L171.492-38.602Q171.422-38.531 171.422-38.426L171.422-38.426L171.422-38.426Q171.422-38.320 171.457-38.215L171.457-38.215L171.492-38.215L171.492-36.984L171.492-36.984Q171.703-36.246 171.703-35.508L171.703-35.508L171.703-35.508Q171.703-34.805 171.492-34.066L171.492-34.066L171.492-33.293L171.422-33.258L171.387-33.012L171.387-32.836L171.492-32.836L171.492-32.730L171.387-32.625L171.387-32.273L171.492-32.203L171.492-27.949L171.492-27.949Q171.633-27.527 171.633-26.930L171.633-26.930L171.633-26.930Q171.633-26.332 171.492-25.559L171.492-25.559L171.492-23.977L171.563-23.660L171.598-23.344L171.598-23.203L171.598-23.203Q171.598-22.922 171.492-22.711L171.492-22.711Z"></path></g></g><g transform="translate(-2.1555763823805063 44.948453608247426) scale(0.6664583984171614)" fill="#000000"><g id="line2" fill="#000000"><path d="M37.125 1.055L37.090 1.371L37.055 1.723L37.055 2.391L37.055 2.391Q36.703 4.430 35.824 6.223L35.824 6.223L35.895 6.223L35.895 6.223Q35.719 6.609 35.473 6.961L35.473 6.961L35.438 6.926L35.438 6.926Q35.191 7.383 34.875 7.840L34.875 7.840L34.875 7.840Q34.629 8.121 34.383 8.543L34.383 8.543L34.172 8.895L33.926 9.246L33.820 9.176L33.258 9.809L33.258 9.809Q29.953 12.516 27.879 13.219L27.879 13.219L27.914 13.254L27.457 13.430L27.422 13.395L27.035 13.500L27.105 13.535L26.648 13.676L26.578 13.605L26.578 13.605Q25.207 13.957 23.766 13.992L23.766 13.992L23.766 13.992Q23.379 13.887 22.711 13.887L22.711 13.887L21.621 13.887L20.988 13.816L20.988 13.816Q19.477 13.465 18.281 13.078L18.281 13.078L17.824 12.867L17.824 12.867Q17.051 12.551 16.277 12.094L16.277 12.094L16.277 12.094Q15.891 11.742 15.398 11.531L15.398 11.531L15.398 11.531Q14.625 11.004 13.922 10.371L13.922 10.371L13.922 10.371Q13.676 10.020 13.289 9.598L13.289 9.598L12.586 8.824L12.586 8.824Q11.742 7.910 11.320 7.207L11.320 7.207L11.320 7.207Q11.145 6.715 10.828 6.293L10.828 6.293L10.477 5.520L10.477 5.520Q10.371 5.063 10.055 4.184L10.055 4.184L9.809 3.516L9.809 3.516Q9.703 3.129 9.633 2.813L9.633 2.813L9.633 2.813Q9.527 1.934 9.492 0.773L9.492 0.773L9.387-1.266L9.387-1.266Q9.563-3.797 10.371-6.223L10.371-6.223L10.336-6.258L10.406-6.609L10.477-6.680L10.512-6.609L10.793-7.383L10.793-7.383Q11.039-7.734 11.285-8.262L11.285-8.262L11.285-8.262Q11.426-8.578 11.637-9.176L11.637-9.176L12.094-10.020L12.094-10.020Q12.445-10.406 12.621-10.863L12.621-10.863L12.621-10.863Q12.691-11.180 12.902-11.391L12.902-11.391L12.973-11.355L13.219-11.707L13.219-11.707Q13.676-11.988 13.816-12.516L13.816-12.516L13.816-12.516Q14.449-13.254 15.082-13.922L15.082-13.922L15.047-13.957L15.082-13.992L15.188-14.063L15.223-14.063L15.223-14.063Q16.172-15.012 17.262-15.820L17.262-15.820L17.227-15.926L17.613-16.207L17.719-16.172L17.719-16.172Q18.527-16.734 19.441-17.262L19.441-17.262L19.863-17.438L20.285-17.613L20.285-17.613Q20.742-17.824 21.023-18.070L21.023-18.070L21.023-18.070Q21.410-18.246 21.938-18.422L21.938-18.422L22.922-18.703L22.922-18.703Q24.223-19.020 24.785-19.371L24.785-19.371L25.770-19.547L25.910-19.547L25.910-19.547Q26.332-19.547 26.824-19.723L26.824-19.723L27.879-19.828L27.879-19.828Q28.406-19.793 28.793-19.793L28.793-19.793L28.793-19.793Q29.320-19.793 29.707-19.863L29.707-19.863L30.762-19.863L30.762-19.863Q31.395-19.652 32.836-19.652L32.836-19.652L33.258-19.652L33.258-19.652Q34.875-19.652 35.754-19.863L35.754-19.863L36.879-19.863L36.949-19.934L36.984-19.863L37.125-19.863L37.266-19.758L37.266-17.332L37.266-17.332Q37.195-17.086 37.195-16.840L37.195-16.840L37.195-16.840Q37.195-16.594 37.266-16.348L37.266-16.348L37.266-15.469L37.266-15.469Q37.336-15.434 37.336-15.328L37.336-15.328L37.336-15.328Q37.336-15.258 37.266-15.152L37.266-15.152L37.266-14.238L37.336-14.309L37.336-13.992L37.336-13.992Q37.301-13.992 37.266-14.098L37.266-14.098L37.266-12.586L37.266-12.586Q37.125-11.988 37.125-11.461L37.125-11.461L37.125-11.250L37.125-11.250Q37.125-10.758 37.266-10.371L37.266-10.371L37.266-7.453L37.266-7.453Q37.020-6.891 37.020-5.660L37.020-5.660L37.020-5.098L37.020-5.098Q37.055-3.727 37.266-2.637L37.266-2.637L37.266 0.070L37.230 0.316L37.266 0.281L37.266 0.352L37.230 0.457L37.195 0.738L37.125 1.055L37.125 1.090L37.160 1.020L37.125 1.055ZM61.242-4.465L61.242-4.465Q61.242-4.711 61.172-4.887L61.172-4.887L61.172-5.379L61.066-5.414L61.066-5.555L61.066-5.555Q61.066-5.695 61.102-5.836L61.102-5.836L61.172-5.836L61.172-6.117L61.172-6.117Q61.242-6.328 61.242-6.504L61.242-6.504L61.242-6.504Q61.242-6.715 61.172-6.926L61.172-6.926L61.172-10.969L61.137-10.934L61.137-11.180L61.172-11.215L61.172-11.953L61.172-11.953Q61.207-12.305 61.207-12.621L61.207-12.621L61.207-12.621Q61.207-12.938 61.172-13.184L61.172-13.184L61.172-15.082L61.172-15.082Q61.383-15.609 61.383-16.137L61.383-16.137L61.383-16.137Q61.383-16.664 61.172-17.156L61.172-17.156L61.172-17.859L61.066-17.859L61.066-18.105L61.172-17.965L61.172-18.633L61.137-18.668L61.172-18.738L61.172-19.195L61.172-19.195Q61.383-19.793 61.383-20.813L61.383-20.813L61.383-21.129L61.383-21.129Q61.348-22.254 61.172-23.098L61.172-23.098L61.172-24.820L61.137-24.820L61.137-25.383L61.172-25.348L61.172-25.980L61.137-25.980L61.172-26.191L61.172-26.262L61.172-26.262Q61.242-26.824 61.242-27.387L61.242-27.387L61.242-27.387Q61.242-27.949 61.172-28.512L61.172-28.512L61.172-28.688L61.137-28.898L61.172-28.898L61.172-31.254L61.172-31.254Q61.383-32.063 61.383-32.836L61.383-32.836L61.383-32.836Q61.383-33.680 61.137-34.488L61.137-34.488L61.172-34.523L61.172-35.473L61.172-35.473Q61.313-35.930 61.313-36.668L61.313-36.668L61.313-36.984L61.313-36.984Q61.313-37.863 61.172-38.566L61.172-38.566L61.172-39.305L61.137-39.305L61.172-39.480L61.242-39.973L61.277-40.500L61.277-40.746L61.277-40.746Q61.277-41.203 61.172-41.520L61.172-41.520L61.172-41.801L61.137-41.801L61.102-41.836L61.102-42.188L61.172-42.258L61.172-44.156L61.102-44.086L61.066-44.191L61.066-44.191Q61.066-44.332 61.102-44.508L61.102-44.508L61.172-44.543L61.172-46.230L61.102-46.160L61.102-46.406L61.172-46.336L61.172-48.586L61.172-48.586Q61.242-48.867 61.242-49.113L61.242-49.113L61.242-49.113Q61.242-49.395 61.172-49.641L61.172-49.641L61.172-53.473L61.102-53.613L61.137-53.789L61.172-53.824L61.172-54.457L61.207-55.055L61.207-55.266L61.207-55.266Q61.207-55.512 61.172-55.688L61.172-55.688L61.172-58.254L61.172-58.254Q61.172-59.309 60.152-59.660L60.152-59.660L60.223-59.625L60.328-59.555L60.293-59.520L60.047-59.590L60.117-59.660L60.117-59.660Q59.871-59.730 59.660-59.730L59.660-59.730L58.992-59.730L58.992-59.730Q58.816-59.766 58.641-59.766L58.641-59.766L58.641-59.766Q58.500-59.766 58.324-59.730L58.324-59.730L57.586-59.730L57.586-59.695L57.551-59.730L56.672-59.730L56.672-59.730Q56.074-59.730 55.617-59.309L55.617-59.309L55.617-59.309Q55.195-58.852 55.195-58.254L55.195-58.254L55.195-57.832L55.195-57.832Q55.090-57.305 55.090-56.813L55.090-56.813L55.090-56.566L55.090-56.566Q55.090-56.109 55.195-55.793L55.195-55.793L55.195-51.398L55.266-51.434L55.230-50.801L55.195-50.801L55.195-49.957L55.160-49.605L55.125-49.289L55.125-49.289Q55.090-49.184 55.090-49.078L55.090-49.078L55.090-49.078Q55.090-48.832 55.195-48.656L55.195-48.656L55.195-47.637L55.230-47.637L55.230-47.637Q55.125-47.250 55.125-46.652L55.125-46.652L55.160-46.125L55.195-45.633L55.195-43.277L55.195-43.277Q55.160-42.891 55.160-42.398L55.160-42.398L55.195-41.484L55.195-36.492L55.195-36.492Q55.055-36.176 55.055-35.754L55.055-35.754L55.055-35.754Q55.055-35.578 55.090-35.402L55.090-35.402L55.125-34.805L55.195-34.277L55.195-33.574L55.195-33.574Q55.160-32.871 55.160-32.133L55.160-32.133L55.160-32.133Q55.160-31.430 55.195-30.656L55.195-30.656L55.195-28.477L55.195-28.477Q55.125-28.160 55.125-27.879L55.125-27.879L55.125-27.879Q55.125-27.598 55.195-27.387L55.195-27.387L55.195-26.227L55.301-26.332L55.371-26.262L55.371-26.191L55.371-26.191Q55.371-26.016 55.266-25.910L55.266-25.910L55.195-25.945L55.195-25.840L54.773-25.840L54.773-25.840Q54.984-25.840 55.055-25.734L55.055-25.734L55.055-25.734Q54.984-25.699 54.949-25.699L54.949-25.699L54.949-25.699Q54.809-25.699 54.703-25.805L54.703-25.805L54.738-25.840L54.598-25.840L54.598-25.840Q54.352-26.016 53.754-26.016L53.754-26.016L53.754-26.016Q53.578-26.016 53.332-25.980L53.332-25.980L52.945-25.945L52.594-25.910L52.594-25.910Q52.172-25.875 51.996-25.840L51.996-25.840L50.766-25.840L50.766-25.840Q50.520-25.910 50.238-25.910L50.238-25.910L50.238-25.910Q49.957-25.910 49.676-25.840L49.676-25.840L48.832-25.840L48.832-25.840Q48.551-25.910 48.164-25.910L48.164-25.910L47.918-25.910L47.461-25.875L46.969-25.840L46.020-25.840L45.492-25.910L44.930-25.945L44.930-25.945Q44.754-25.980 44.578-25.980L44.578-25.980L44.578-25.980Q44.191-25.980 43.875-25.840L43.875-25.840L43.383-25.840L43.242-25.980L43.242-26.648L43.242-26.648Q43.277-26.824 43.277-26.965L43.277-26.965L43.277-26.965Q43.277-27.141 43.242-27.281L43.242-27.281L43.242-28.547L43.172-28.477L43.172-29.180L43.242-29.074L43.242-29.742L43.102-29.672L43.102-30.094L43.102-30.094Q43.137-30.059 43.242-29.988L43.242-29.988L43.242-32.871L43.242-32.871Q43.172-32.977 43.172-33.047L43.172-33.047L43.172-33.047Q43.172-33.117 43.242-33.152L43.242-33.152L43.242-33.434L43.242-33.434Q43.348-33.750 43.348-34.207L43.348-34.207L43.348-34.453L43.348-34.453Q43.348-34.980 43.242-35.508L43.242-35.508L43.242-36.422L43.242-36.422Q43.313-36.703 43.313-36.949L43.313-36.949L43.313-36.949Q43.313-37.230 43.242-37.477L43.242-37.477L43.242-38.461L43.242-38.461Q43.348-38.742 43.348-39.023L43.348-39.023L43.348-39.023Q43.348-39.270 43.242-39.516L43.242-39.516L43.242-46.758L43.277-47.250L43.348-47.742L43.348-47.742Q43.348-48.305 43.242-48.691L43.242-48.691L43.242-49.008L43.172-49.078L43.172-49.289L43.242-49.395L43.242-50.344L43.242-50.344Q43.242-50.555 43.277-50.906L43.277-50.906L43.348-51.539L43.348-51.820L43.348-51.820Q43.348-52.348 43.242-52.699L43.242-52.699L43.242-53.648L43.242-53.648Q43.348-53.895 43.348-54.176L43.348-54.176L43.348-54.176Q43.348-54.457 43.242-54.773L43.242-54.773L43.242-55.758L43.242-55.758Q43.313-56.215 43.313-56.672L43.313-56.672L43.313-56.672Q43.313-57.234 43.207-57.832L43.207-57.832L43.242-57.797L43.242-58.254L43.242-58.254Q43.242-58.535 43.102-58.816L43.102-58.816L43.102-58.816Q42.961-59.660 40.852-59.871L40.852-59.871L40.852-59.871Q40.219-59.941 39.691-59.941L39.691-59.941L39.691-59.941Q38.602-59.941 38.074-59.625L38.074-59.625L38.074-59.625Q37.617-59.449 37.371-59.063L37.371-59.063L37.371-59.063Q37.020-58.711 37.020-58.254L37.020-58.254L37.020-58.254Q37.020-58.113 37.055-58.008L37.055-58.008L37.055-58.008Q36.809-56.953 36.281-55.969L36.281-55.969L36.281-55.969Q36-55.617 35.824-55.195L35.824-55.195L35.824-55.195Q35.262-54.387 34.559-53.754L34.559-53.754L34.523-53.719L34.418-53.648L34.418-53.648Q33.715-53.051 32.906-52.664L32.906-52.664L31.816-52.313L31.816-52.313Q31.219-52.137 30.797-51.926L30.797-51.926L30.234-51.820L30.340-51.750L30.340-51.750Q30.164-51.715 29.848-51.715L29.848-51.715L29.848-51.785L29.848-51.785Q29.566-51.750 29.285-51.750L29.285-51.750L29.285-51.750Q28.547-51.750 27.844-51.891L27.844-51.891L27.844-51.891Q27.563-52.031 27.211-52.172L27.211-52.172L26.543-52.383L26.543-52.383Q25.699-52.664 25.277-52.875L25.277-52.875L24.363-53.438L24.363-53.438Q24.047-53.613 23.766-53.613L23.766-53.613L23.766-53.613Q23.555-53.613 23.344-53.508L23.344-53.508L23.344-53.508Q22.922-53.402 22.676-53.121L22.676-53.121L21.832-52.277L21.902-52.242L21.902-52.242Q21.797-52.172 21.727-52.102L21.727-52.102L21.586-51.996L21.621-52.102L21.234-51.680L21.234-51.645L20.988-51.434L20.742-51.188L20.742-51.188Q20.426-50.906 20.285-50.695L20.285-50.695L20.285-50.695Q20.039-50.344 20.039-49.992L20.039-49.992L20.039-49.992Q20.039-49.711 20.180-49.430L20.180-49.430L20.180-49.430Q20.250-49.254 20.355-49.113L20.355-49.113L20.355-49.184L20.918-48.656L20.883-48.586L21.234-48.340L21.234-48.340Q21.445-48.094 21.762-47.988L21.762-47.988L21.762-47.988Q22.254-47.672 22.746-47.426L22.746-47.426L22.746-47.426Q23.309-46.863 24.609-46.477L24.609-46.477L24.609-46.477Q25.102-46.336 25.734-46.195L25.734-46.195L26.262-46.090L26.754-46.020L26.754-46.090L27.387-45.984L27.387-45.949L27.352-45.914L27.668-45.879L27.668-45.879Q28.195-45.633 28.828-45.633L28.828-45.633L28.828-45.633Q29.355-45.633 29.918-45.809L29.918-45.809L30.375-45.844L30.410-45.879L30.551-45.879L30.551-45.844L30.762-45.879L30.762-45.879Q30.938-45.844 31.113-45.844L31.113-45.844L31.113-45.844Q31.957-45.844 33.328-46.371L33.328-46.371L33.363-46.406L33.574-46.477L33.574-46.477Q34.699-46.828 35.824-47.426L35.824-47.426L35.824-47.426Q36.316-47.672 37.230-48.270L37.230-48.270L37.266-48.234L37.266-47.602L37.266-47.602Q37.230-47.426 37.230-47.250L37.230-47.250L37.230-47.250Q37.230-47.074 37.266-46.898L37.266-46.898L37.266-46.055L37.336-46.195L37.336-45.703L37.266-45.809L37.266-45.598L37.336-45.527L37.336-45.246L37.266-45.105L37.266-43.734L37.266-43.734Q37.195-43.488 37.195-43.242L37.195-43.242L37.195-43.242Q37.195-42.996 37.266-42.715L37.266-42.715L37.266-41.941L37.336-42.012L37.336-41.801L37.266-41.871L37.266-40.816L37.266-40.816Q37.195-40.465 37.195-40.184L37.195-40.184L37.195-40.184Q37.195-39.832 37.301-39.516L37.301-39.516L37.266-39.516L37.266-39.270L37.336-39.270L37.371-38.848L37.371-38.461L37.371-38.461Q37.336-38.355 37.266-38.285L37.266-38.285L37.266-35.508L37.195-35.016L37.125-34.488L37.125-34.277L37.125-34.277Q37.125-33.785 37.266-33.504L37.266-33.504L37.266-32.484L37.301-32.449L37.301-32.449Q37.195-32.027 37.160-31.500L37.160-31.500L37.160-31.500Q37.160-30.938 37.266-30.551L37.266-30.551L37.266-29.391L37.266-29.391Q37.195-29.145 37.195-28.898L37.195-28.898L37.195-28.898Q37.195-28.688 37.266-28.441L37.266-28.441L37.266-27.457L37.266-27.457Q37.160-27.176 37.160-26.895L37.160-26.895L37.160-26.895Q37.160-26.648 37.266-26.438L37.266-26.438L37.266-25.945L37.160-25.840L36.703-25.840L36.773-25.734L36.598-25.770L36.633-25.840L35.719-25.840L35.719-25.840Q35.508-25.875 35.297-25.875L35.297-25.875L35.297-25.875Q35.121-25.875 34.910-25.840L34.910-25.840L33.363-25.840L33.328-25.805L33.012-25.805L32.977-25.840L31.992-25.840L31.395-25.875L30.832-25.840L29.285-25.840L29.285-25.840Q28.090-25.840 26.824-25.734L26.824-25.734L26.262-25.699L25.734-25.664L25.734-25.664Q25.102-25.629 24.645-25.453L24.645-25.453L24.188-25.348L23.695-25.277L23.695-25.277Q23.063-25.207 22.641-25.102L22.641-25.102L22.641-25.102Q21.410-24.855 20.813-24.434L20.813-24.434L19.547-23.941L19.125-23.836L18.703-23.695L18.703-23.695Q18.246-23.520 18-23.273L18-23.273L18-23.273Q16.629-22.605 15.363-21.797L15.363-21.797L15.363-21.797Q14.977-21.691 14.625-21.375L14.625-21.375L14.309-21.094L13.957-20.813L13.711-20.637L13.395-20.355L13.395-20.391L12.762-19.898L12.797-19.828L12.480-19.547L12.445-19.617L12.340-19.512L12.410-19.477L12.270-19.406L12.164-19.336L11.988-19.230L11.355-18.598L11.355-18.598Q10.371-18.070 9.914-17.121L9.914-17.121L9.246-16.313L9.246-16.313Q7.488-14.941 6.891-12.973L6.891-12.973L6.469-12.234L6.469-12.234Q5.941-11.742 5.836-10.969L5.836-10.969L5.414-10.055L5.449-10.055L5.273-9.668L5.168-9.387L5.168-9.387Q4.395-7.770 4.148-6.152L4.148-6.152L3.832-4.781L3.832-4.781Q3.621-4.219 3.621-3.656L3.621-3.656L3.621-3.480L3.516-2.496L3.516-2.496Q3.410-2.250 3.410-1.969L3.410-1.969L3.410-1.969Q3.410-1.793 3.445-1.617L3.445-1.617L3.375-0.457L3.375-0.457Q3.234-0.070 3.234 0.422L3.234 0.422L3.234 0.422Q3.234 0.703 3.270 0.984L3.270 0.984L3.270 0.984Q3.305 1.652 3.516 2.426L3.516 2.426L3.691 3.621L3.691 3.832L3.691 3.832Q3.691 4.219 3.902 4.570L3.902 4.570L4.148 5.590L4.148 5.590Q4.148 6.188 4.465 6.926L4.465 6.926L4.465 6.926Q4.676 7.453 5.098 8.191L5.098 8.191L5.098 8.191Q5.449 8.930 5.801 9.563L5.801 9.563L5.871 9.527L6.012 9.809L5.941 9.844L5.941 9.844Q6.539 10.863 7.277 11.883L7.277 11.883L7.277 11.883Q7.840 13.043 8.613 13.500L8.613 13.500L9.352 14.273L9.352 14.273Q10.020 15.504 12.375 16.980L12.375 16.980L12.375 16.980Q14.660 18.492 16.102 18.633L16.102 18.633L16.102 18.633Q17.121 19.020 18.281 19.336L18.281 19.336L18.281 19.336Q19.547 19.793 21.094 20.004L21.094 20.004L21.094 20.004Q21.902 20.109 22.570 20.109L22.570 20.109L22.570 20.109Q23.379 20.109 23.977 19.969L23.977 19.969L23.977 19.969Q24.680 19.934 25.348 19.863L25.348 19.863L25.523 19.863L25.523 19.863Q26.367 19.863 27.246 19.582L27.246 19.582L27.949 19.441L27.949 19.441Q28.617 19.371 29.004 19.266L29.004 19.266L29.004 19.266Q29.637 19.090 29.988 18.809L29.988 18.809L31.008 18.422L31.008 18.422Q31.570 18.387 31.992 17.965L31.992 17.965L31.992 17.965Q33.012 17.438 33.926 16.840L33.926 16.840L34.207 16.664L34.207 16.664Q35.227 15.996 36.070 15.258L36.070 15.258L36.070 15.188L36.281 15.012L36.316 15.047L36.773 14.625L36.703 14.660L36.703 14.625L36.914 14.449L36.984 14.414L36.984 14.414Q38.355 13.113 39.480 11.531L39.480 11.531L39.445 11.496L39.621 11.250L39.656 11.320L39.656 11.320Q40.113 10.582 40.605 9.738L40.605 9.738L40.605 9.738Q40.852 9.457 40.957 9.070L40.957 9.070L40.957 9.070Q41.379 8.262 41.660 7.594L41.660 7.594L41.590 7.488L41.625 7.418L41.730 7.453L41.730 7.453Q41.941 6.926 42.152 6.223L42.152 6.223L42.152 6.223Q42.609 5.414 42.715 4.359L42.715 4.359L42.750 4.184L42.715 4.148L42.715 4.148Q42.715 3.867 42.820 3.621L42.820 3.621L42.855 3.621L42.891 3.340L42.891 3.340Q43.348 2.391 43.383 0.703L43.383 0.703L43.383 0.105L43.383 0.105Q43.383-1.055 43.172-2.004L43.172-2.004L43.242-2.004L43.242-2.883L43.242-2.883Q43.277-3.129 43.277-3.340L43.277-3.340L43.277-3.340Q43.277-3.586 43.242-3.832L43.242-3.832L43.242-5.801L43.242-5.801Q43.277-6.188 43.277-6.469L43.277-6.469L43.277-6.469Q43.277-6.750 43.242-6.926L43.242-6.926L43.242-9.246L43.242-9.246Q43.313-9.914 43.313-10.406L43.313-10.406L43.313-10.406Q43.313-10.934 43.242-11.285L43.242-11.285L43.242-11.953L43.242-11.953Q43.348-12.586 43.348-13.113L43.348-13.113L43.348-13.113Q43.348-13.676 43.242-14.133L43.242-14.133L43.242-18.738L43.137-18.633L43.102-18.949L43.102-18.949Q43.137-18.949 43.242-18.879L43.242-18.879L43.242-19.863L44.859-19.863L44.859-19.863Q45.070-19.828 45.281-19.828L45.281-19.828L45.281-19.828Q45.492-19.828 45.703-19.863L45.703-19.863L48.621-19.863L48.621-19.863Q49.465-19.688 50.730-19.688L50.730-19.688L50.730-19.688Q51.855-19.723 52.840-19.898L52.840-19.898L52.840-19.863L53.719-19.863L53.719-19.863Q53.930-19.828 54.105-19.828L54.105-19.828L54.105-19.828Q54.281-19.828 54.457-19.863L54.457-19.863L55.195-19.863L55.195-19.723L55.301-19.898L55.301-19.898Q55.371-19.828 55.371-19.723L55.371-19.723L55.371-19.723Q55.371-19.547 55.230-19.301L55.230-19.301L55.195-19.336L55.195-19.266L55.195-19.266Q55.090-19.055 55.090-18.809L55.090-18.809L55.090-18.809Q55.090-18.563 55.195-18.316L55.195-18.316L55.195-18.070L55.266-18.141L55.266-18.141Q55.301-17.789 55.301-17.402L55.301-17.402L55.195-17.402L55.195-15.258L55.266-15.258L55.266-14.906L55.195-14.836L55.195-13.781L55.125-13.008L55.125-12.797L55.125-12.797Q55.125-12.480 55.195-12.234L55.195-12.234L55.195-9.668L55.266-9.773L55.230-9.387L55.195-9.457L55.195-9.141L55.195-9.141Q55.125-8.930 55.125-8.648L55.125-8.648L55.125-8.648Q55.125-8.367 55.195-8.016L55.195-8.016L55.195-7.488L55.230-7.488L55.195-7.453L55.230-7.418L55.230-6.996L55.195-7.031L55.195-4.641L55.266-4.605L55.266-4.500L55.195-4.465L55.195-3.164L55.125-2.250L55.125-2.250Q55.125-1.758 55.160-1.406L55.160-1.406L55.160-1.406Q55.301-0.422 56.074-0.035L56.074-0.035L56.074-0.035Q56.496 0.211 57.480 0.211L57.480 0.211L57.727 0.211L57.727 0.211Q58.148 0.211 58.641 0.141L58.641 0.141L58.641 0.141Q59.027 0.105 59.414 0.070L59.414 0.070L59.660 0.070L60.012 0L60.012 0Q60.680-0.070 60.996-0.668L60.996-0.668L60.996-0.668Q61.207-1.020 61.207-1.477L61.207-1.477L61.207-1.477Q61.207-1.688 61.172-1.898L61.172-1.898L61.172-3.973L61.207-4.078L61.207-4.078Q61.242-4.254 61.242-4.465L61.242-4.465Z"></path><path d="M85.359-4.605L85.395-4.219L85.395-3.586L85.395-3.586Q85.395-3.340 85.359-3.164L85.359-3.164L85.359-2.637L85.324-2.602L85.359-2.566L85.359-1.617L85.359-1.617Q85.359-1.020 84.973-0.598L84.973-0.598L84.973-0.598Q84.516-0.070 83.742-0.070L83.742-0.070L83.742-0.070Q83.496-0.070 83.250-0.105L83.250-0.105L81.914-0.105L80.227-0.070L78.539 0L77.766 0L77.766 0Q76.254 0 75.164-0.105L75.164-0.105L74.602-0.105L74.602-0.105Q74.039-0.070 73.547-0.070L73.547-0.070L73.547-0.070Q73.055-0.070 72.633-0.105L72.633-0.105L71.262-0.105L71.262-0.105Q71.086-0.070 70.910-0.070L70.910-0.070L70.910-0.070Q70.734-0.070 70.523-0.105L70.523-0.105L69.891-0.105L69.891-0.105Q68.730-0.105 68.344-1.688L68.344-1.688L68.344-1.688Q68.168-2.320 68.168-2.918L68.168-2.918L68.168-2.918Q68.168-3.586 68.414-4.184L68.414-4.184L68.414-4.184Q68.484-4.324 68.484-4.395L68.484-4.395L68.484-4.395Q68.484-4.500 68.414-4.570L68.414-4.570L68.414-8.402L68.414-8.402Q68.309-9.211 68.273-9.949L68.273-9.949L68.273-9.949Q68.273-10.898 68.414-11.496L68.414-11.496L68.414-12.234L68.414-12.234Q68.344-12.621 68.344-12.902L68.344-12.902L68.344-12.902Q68.344-13.219 68.414-13.395L68.414-13.395L68.414-13.430L68.414-13.430Q68.520-13.641 68.520-13.922L68.520-13.922L68.414-13.887L68.414-14.906L68.414-14.906Q68.414-15.152 68.449-15.539L68.449-15.539L68.414-15.574L68.414-16.418L68.414-16.418Q68.273-16.945 68.273-17.613L68.273-17.613L68.344-18.211L68.414-18.773L68.414-19.371L68.344-19.898L68.309-20.461L68.309-20.461Q68.309-21.094 68.414-21.586L68.414-21.586L68.414-26.789L68.449-26.789L68.484-27L68.414-27L68.414-29.637L68.414-29.637Q68.344-30.023 68.344-30.305L68.344-30.305L68.344-30.305Q68.344-30.621 68.414-30.797L68.414-30.797L68.414-31.887L68.414-31.887Q68.203-32.484 68.203-33.504L68.203-33.504L68.203-34.031L68.203-34.031Q68.238-34.453 68.309-35.191L68.309-35.191L68.379-35.754L68.414-36.246L68.414-37.652L68.414-37.652Q68.379-37.969 68.379-38.215L68.379-38.215L68.379-38.215Q68.379-38.953 68.625-39.234L68.625-39.234L68.625-39.234Q68.836-39.586 69.188-39.797L69.188-39.797L69.188-39.762L69.328-39.867L69.469-39.902L69.469-39.902Q69.785-40.043 70.348-40.043L70.348-40.043L71.262-39.973L72.457-39.973L72.809-40.008L73.160-40.043L73.934-40.113L74.215-40.113L74.215-40.113Q74.918-40.113 75.375-39.973L75.375-39.973L76.148-39.973L76.148-39.973Q76.148-39.902 76.184-39.867L76.184-39.867L76.465-39.867L76.430-39.973L76.992-39.973L76.992-39.973Q77.063-39.902 77.133-39.902L77.133-39.902L77.133-39.902Q77.203-39.902 77.273-39.973L77.273-39.973L77.344-39.973L77.344-39.973Q77.730-40.113 78.293-40.113L78.293-40.113L78.504-40.113L79.102-40.043L79.629-39.973L81.316-39.973L81.773-40.008L81.773-40.008Q82.020-40.008 82.230-39.973L82.230-39.973L83.813-39.973L83.813-39.973Q84.234-39.973 84.586-39.762L84.586-39.762L84.586-39.762Q84.973-39.551 85.148-39.199L85.148-39.199L85.148-39.199Q85.430-38.848 85.430-38.355L85.430-38.355L85.430-38.355Q85.430-38.145 85.359-37.898L85.359-37.898L85.359-36.492L85.359-36.492Q85.324-36.527 85.289-36.527L85.289-36.527L85.289-36.527Q85.254-36.527 85.219-36.457L85.219-36.457L85.219-36.387L85.359-36.281L85.359-35.473L85.359-35.473Q85.359-35.297 85.289-35.086L85.289-35.086L85.289-35.086Q85.184-34.242 84.480-34.137L84.480-34.137L84.480-34.137Q84.164-33.996 83.848-33.996L83.848-33.996L83.320-33.996L83.320-33.996Q83.109-33.926 82.828-33.926L82.828-33.926L82.828-33.926Q82.547-33.926 82.195-33.996L82.195-33.996L80.754-33.996L80.684-34.066L80.191-34.066L80.227-33.996L74.531-33.996L74.391-33.855L74.391-33.504L74.215-33.574L74.250-33.363L74.250-33.223L74.285-33.082L74.391-33.082L74.391-32.309L74.320-32.344L74.320-32.168L74.391-32.238L74.355-31.711L74.355-31.711Q74.461-31.219 74.461-30.902L74.461-30.902L74.461-30.902Q74.461-30.656 74.391-30.480L74.391-30.480L74.391-29.496L74.355-29.602L74.355-29.602Q74.496-29.074 74.496-28.441L74.496-28.441L74.496-28.441Q74.496-27.914 74.391-27.352L74.391-27.352L74.391-26.016L76.816-26.016L77.133-26.051L77.484-26.086L77.660-26.086L77.660-26.086Q77.941-26.086 78.152-26.016L78.152-26.016L78.223-26.016L78.223-25.980L78.574-25.910L78.504-26.016L79.313-26.016L79.313-26.016Q79.559-26.086 79.875-26.086L79.875-26.086L80.438-26.016L80.859-26.016L80.859-26.016Q81.176-26.016 81.492-25.875L81.492-25.875L81.598-25.805L81.598-25.805Q82.371-25.383 82.371-24.539L82.371-24.539L82.371-22.008L82.371-22.008Q82.441-21.797 82.441-21.621L82.441-21.621L82.441-21.621Q82.441-21.270 82.230-20.918L82.230-20.918L82.230-20.918Q81.879-20.180 81.105-20.074L81.105-20.074L81.105-20.074Q80.859-20.004 80.473-20.004L80.473-20.004L80.156-20.039L78.328-20.039L78.328-20.039Q77.871-19.969 77.309-19.969L77.309-19.969L77.309-19.969Q76.781-19.969 76.184-20.039L76.184-20.039L75.023-20.039L74.953-20.145L74.883-20.250L74.602-20.039L74.391-20.039L74.391-19.230L74.391-19.230Q74.426-19.090 74.426-18.879L74.426-18.879L74.391-18.492L74.391-17.719L74.391-17.719Q74.496-17.016 74.496-16.453L74.496-16.453L74.496-16.453Q74.496-15.891 74.391-15.504L74.391-15.504L74.391-14.836L74.355-14.766L74.355-14.414L74.391-10.582L74.391-10.582Q74.496-10.336 74.496-10.090L74.496-10.090L74.496-10.090Q74.496-9.809 74.391-9.527L74.391-9.527L74.391-8.402L74.461-8.016L74.496-7.559L74.496-7.348L74.496-7.348Q74.496-6.926 74.391-6.715L74.391-6.715L74.391-6.082L75.234-6.082L75.234-6.082Q75.551-6.117 75.973-6.117L75.973-6.117L76.395-6.117L76.957-6.047L77.520-6.012L77.379-6.082L79.066-6.082L79.066-6.082Q79.242-6.117 79.488-6.117L79.488-6.117L80.156-6.117L80.508-6.082L83.848-6.082L83.848-6.082Q85.078-6.082 85.324-4.887L85.324-4.887L85.324-4.887Q85.359-4.746 85.359-4.605L85.359-4.605Z"></path><path d="M98.719-37.195L98.719-37.125L98.719-37.125Q98.648-37.020 98.648-36.914L98.648-36.914L98.648-36.914Q98.648-36.844 98.684-36.738L98.684-36.738L98.684-36.738Q98.473-35.227 97.172-34.418L97.172-34.418L97.207-34.488L97.066-34.418L97.102-34.418L97.102-34.418Q96.328-33.961 95.449-33.961L95.449-33.961L95.063-33.961L95.063-33.961Q93.551-33.961 92.566-35.684L92.566-35.684L92.566-35.684Q92.039-36.563 92.039-37.301L92.039-37.301L92.039-37.301Q92.039-38.074 92.602-38.672L92.602-38.672L92.602-38.672Q93.129-39.691 94.148-40.148L94.148-40.148L94.113-40.078L94.359-40.184L94.359-40.219L94.781-40.359L94.781-40.359Q95.098-40.500 95.484-40.500L95.484-40.500L95.484-40.500Q95.906-40.500 96.363-40.324L96.363-40.324L96.363-40.324Q97.137-40.078 97.734-39.516L97.734-39.516L97.734-39.516Q98.156-39.199 98.402-38.742L98.402-38.742L98.402-38.742Q98.648-38.320 98.648-37.934L98.648-37.934L98.648-37.758L98.648-37.758Q98.719-37.477 98.719-37.195L98.719-37.195ZM98.578-27.492L98.578-27.492L98.578-27.492Q98.578-27.281 98.543-27.105L98.543-27.105L98.473-26.824L98.473-26.016L98.473-26.016Q98.508-25.805 98.508-25.559L98.508-25.559L98.508-25.559Q98.508-25.277 98.438-24.961L98.438-24.961L98.473-24.996L98.473-23.941L98.473-23.941Q98.613-23.449 98.613-22.465L98.613-22.465L98.613-22.465Q98.613-21.480 98.473-20.988L98.473-20.988L98.473-19.266L98.438-19.090L98.402-18.949L98.473-18.984L98.473-18.141L98.438-18.176L98.367-18.105L98.402-17.895L98.402-17.895Q98.438-17.754 98.438-17.578L98.438-17.578L98.473-17.578L98.473-14.871L98.438-14.871L98.473-14.203L98.473-14.203Q98.473-13.746 98.438-13.711L98.438-13.711L98.508-12.797L98.508-12.445L98.508-12.445Q98.508-12.129 98.473-11.883L98.473-11.883L98.473-11.074L98.473-11.074Q98.508-10.863 98.508-10.582L98.508-10.582L98.508-10.582Q98.508-10.266 98.473-9.879L98.473-9.879L98.473-9.246L98.473-9.246Q98.543-8.578 98.543-8.016L98.543-8.016L98.543-8.016Q98.543-7.453 98.473-6.961L98.473-6.961L98.473-6.961Q98.473-5.238 98.438-5.238L98.438-5.238L98.473-5.203L98.473-5.063L98.473-5.063Q98.648-4.570 98.648-3.551L98.648-3.551L98.648-2.918L98.648-2.918Q98.613-1.301 98.262-0.844L98.262-0.844L98.262-0.844Q98.051-0.492 97.734-0.281L97.734-0.281L97.734-0.281Q97.453-0.035 96.715-0.035L96.715-0.035L96.715-0.035Q96.469-0.035 96.152-0.070L96.152-0.070L95.590-0.070L95.098-0.035L94.641-0.070L93.973-0.070L93.973-0.070Q93.656-0.070 93.375-0.176L93.375-0.176L93.375-0.176Q92.777-0.316 92.637-0.914L92.637-0.914L92.637-0.914Q92.496-1.230 92.496-1.582L92.496-1.582L92.496-2.109L92.496-2.109Q92.355-2.496 92.355-3.023L92.355-3.023L92.355-3.234L92.426-3.832L92.496-4.395L92.496-6.961L92.426-7.277L92.391-7.664L92.320-8.508L92.320-8.789L92.320-8.789Q92.320-9.563 92.496-10.055L92.496-10.055L92.496-10.512L92.566-10.441L92.566-10.441Q92.566-10.652 92.531-10.863L92.531-10.863L92.496-10.863L92.496-11.074L92.496-11.074Q92.320-11.566 92.320-12.586L92.320-12.586L92.320-12.586Q92.320-13.570 92.496-14.098L92.496-14.098L92.496-20.039L92.496-20.039Q92.426-20.285 92.426-20.496L92.426-20.496L92.426-20.496Q92.426-20.742 92.496-20.953L92.496-20.953L92.496-23.238L92.496-23.238Q92.531-23.344 92.531-23.414L92.531-23.414L92.531-23.414Q92.531-23.520 92.496-23.555L92.496-23.555L92.496-23.695L92.426-24.047L92.391-24.328L92.391-24.469L92.391-24.469Q92.391-24.750 92.496-24.996L92.496-24.996L92.496-25.770L92.566-25.805L92.531-26.016L92.531-26.262L92.496-26.262L92.496-27.035L92.496-27.035Q92.461-27.211 92.461-27.387L92.461-27.387L92.461-27.387Q92.461-27.598 92.496-27.773L92.496-27.773L92.496-29.109L92.496-29.109Q92.461-29.285 92.461-29.461L92.461-29.461L92.461-29.461Q92.461-29.848 92.707-30.234L92.707-30.234L92.707-30.234Q93.129-30.973 93.973-30.973L93.973-30.973L94.395-30.973L94.395-30.973Q94.605-31.008 94.816-31.008L94.816-31.008L95.379-31.008L95.695-30.973L96.891-30.973L96.855-30.938L96.961-30.938L96.926-30.973L96.961-30.973L96.961-30.973Q97.594-30.973 98.016-30.516L98.016-30.516L98.016-30.516Q98.473-30.094 98.473-29.461L98.473-29.461L98.473-29.461Q98.473-28.020 98.438-28.020L98.438-28.020L98.543-27.809L98.543-27.809Q98.578-27.668 98.578-27.492Z"></path><path d="M125.086-10.512L125.086-9.949L125.086-9.949Q125.086-9.457 125.051-8.965L125.051-8.965L125.051-8.965Q125.086-8.754 125.086-8.543L125.086-8.543L125.086-8.543Q125.086-8.121 124.875-7.699L124.875-7.699L124.734-7.207L124.734-7.102L124.734-7.102Q124.734-6.398 124.277-5.871L124.277-5.871L124.277-5.871Q123.961-5.098 123.504-4.395L123.504-4.395L123.504-4.395Q123.117-3.270 121.605-2.145L121.605-2.145L121.605-2.145Q121.008-1.617 120.410-1.230L120.410-1.230L120.340-1.301L120.340-1.301Q120.199-1.230 120.094-1.160L120.094-1.160L120.164-1.055L119.707-0.809L119.707-0.809Q119.285-0.387 118.441-0.105L118.441-0.105L118.441-0.105Q117.703 0.141 117 0.141L117 0.141L117 0.141Q116.508 0.246 116.016 0.281L116.016 0.281L116.016 0.281Q115.559 0.457 115.031 0.457L115.031 0.457L115.031 0.457Q114.469 0.457 113.836 0.246L113.836 0.246L113.520 0.176L113.555 0.141L113.344 0.105L113.344 0.141L113.344 0.141Q112.254-0.035 111.270-0.457L111.270-0.457L111.199-0.598L111.129-0.527L111.129-0.527Q110.602-0.738 110.109-1.055L110.109-1.055L110.109-1.055Q109.512-1.125 109.195-1.652L109.195-1.652L109.055-1.758L109.020-1.863L108.914-1.969L108.914-1.969Q108.879-2.004 108.844-2.004L108.844-2.004L108.844-2.004Q108.809-2.004 108.773-1.969L108.773-1.969L108.773-1.969Q107.578-2.953 106.805-4.043L106.805-4.043L106.805-4.043Q105.855-5.379 105.645-6.645L105.645-6.645L105.469-7.242L105.469-7.242Q105.363-7.629 105.328-7.910L105.328-7.910L105.328-8.121L105.328-8.121Q105.328-8.719 105.680-9.141L105.680-9.141L105.680-9.141Q105.855-9.598 106.418-9.598L106.418-9.598L106.418-9.598Q106.594-9.633 106.805-9.633L106.805-9.633L106.980-9.633L106.945-9.598L106.945-9.563L106.945-9.563Q107.121-9.563 107.297-9.598L107.297-9.598L107.227-9.633L108.246-9.633L108.246-9.633Q108.809-9.703 109.230-9.738L109.230-9.738L109.230-9.738Q109.793-9.738 110.145-9.598L110.145-9.598L110.145-9.598Q110.813-9.492 111.129-8.930L111.129-8.930L111.129-8.930Q111.551-8.438 111.621-7.770L111.621-7.770L111.656-7.734L111.656-7.734Q112.148-6.820 113.027-6.258L113.027-6.258L113.027-6.258Q113.730-5.941 114.750-5.695L114.750-5.695L114.750-5.695Q114.961-5.660 115.137-5.660L115.137-5.660L115.137-5.660Q117.246-5.660 118.793-8.156L118.793-8.156L118.793-8.156Q119.109-8.930 119.109-9.914L119.109-9.914L119.109-9.914Q119.109-10.301 119.074-10.723L119.074-10.723L118.898-11.496L118.723-12.305L118.723-12.305Q118.547-12.762 118.301-13.219L118.301-13.219L118.301-13.219Q117.914-13.605 117.703-14.133L117.703-14.133L117.703-14.133Q117.387-14.555 116.719-15.117L116.719-15.117L115.664-16.031L114.820-16.664L114.926-16.629L114.926-16.664L114.926-16.664Q112.605-17.824 111.305-19.125L111.305-19.125L111.305-19.125Q110.426-19.793 109.688-20.461L109.688-20.461L109.688-20.461Q109.266-20.707 108.984-21.094L108.984-21.094L108.141-22.043L108.141-22.043Q106.523-23.801 106.031-25.594L106.031-25.594L105.750-26.508L105.469-27.387L105.469-27.387Q105.223-28.266 105.223-28.969L105.223-28.969L105.223-29.285L105.223-29.285Q105.188-29.848 105.188-30.410L105.188-30.410L105.188-30.410Q105.152-30.762 105.152-31.078L105.152-31.078L105.152-31.078Q105.152-31.781 105.363-32.238L105.363-32.238L105.363-32.238Q105.504-32.836 105.680-33.469L105.680-33.469L105.680-33.469Q105.750-33.750 105.855-33.996L105.855-33.996L105.855-33.996Q106.488-35.613 107.543-36.914L107.543-36.914L107.543-36.914Q107.613-36.879 107.648-36.879L107.648-36.879L107.648-36.879Q107.684-36.879 107.719-36.914L107.719-36.914L107.859-37.090L107.754-37.125L108.211-37.652L108.211-37.652Q108.668-38.355 109.652-39.059L109.652-39.059L109.652-39.059Q110.672-39.762 111.480-39.832L111.480-39.832L111.480-39.832Q111.902-40.008 112.359-40.113L112.359-40.113L112.359-40.113Q112.781-40.430 113.273-40.430L113.273-40.430L113.273-40.430Q113.414-40.430 113.555-40.395L113.555-40.395L113.555-40.395Q114.117-40.500 114.715-40.535L114.715-40.535L114.820-40.430L114.996-40.430L115.031-40.535L115.453-40.535L115.664-40.500L116.156-40.500L116.156-40.500Q117.563-40.500 118.371-40.008L118.371-40.008L118.371-40.008Q118.828-39.832 119.320-39.621L119.320-39.621L119.320-39.621Q119.953-39.480 120.410-39.023L120.410-39.023L120.727-38.813L120.727-38.813Q122.273-37.969 123.609-35.789L123.609-35.789L123.609-35.789Q124.207-35.051 124.664-33.961L124.664-33.961L124.664-33.961Q125.051-33.047 125.051-32.414L125.051-32.414L125.051-32.414Q125.051-32.168 124.980-31.957L124.980-31.957L124.980-31.957Q124.945-31.535 124.664-31.254L124.664-31.254L124.418-31.008L124.418-31.008Q124.242-30.867 124.137-30.727L124.137-30.727L124.137-30.727Q123.820-30.586 123.469-30.586L123.469-30.586L122.871-30.586L122.871-30.586Q122.379-30.410 121.852-30.410L121.852-30.410L121.852-30.410Q121.359-30.410 120.832-30.586L120.832-30.586L120.375-30.586L120.375-30.586Q119.637-30.586 119.180-31.219L119.180-31.219L119.180-31.219Q118.898-31.430 118.652-32.098L118.652-32.098L118.477-32.625L118.477-32.625Q118.336-32.906 118.195-33.082L118.195-33.082L118.195-33.082Q117.914-33.434 117.457-33.750L117.457-33.750L117.035-33.996L116.613-34.277L116.613-34.277Q115.910-34.559 115.172-34.559L115.172-34.559L115.172-34.559Q114.926-34.559 114.645-34.523L114.645-34.523L114.645-34.523Q112.852-34.277 111.832-32.730L111.832-32.730L111.832-32.730Q111.375-31.816 111.164-30.094L111.164-30.094L111.164-30.094Q111.199-29.285 111.375-28.617L111.375-28.617L111.375-28.617Q111.516-28.230 111.621-27.809L111.621-27.809L111.727-27.492L111.727-27.492Q111.832-27.211 111.973-26.965L111.973-26.965L111.973-26.965Q112.219-26.543 112.535-26.086L112.535-26.086L112.535-26.086Q112.641-26.016 112.781-25.805L112.781-25.805L113.063-25.453L113.063-25.453Q113.414-25.031 113.660-24.926L113.660-24.926L114.293-24.398L114.258-24.328L114.258-24.328Q114.434-24.152 114.680-24.082L114.680-24.082L114.715-24.047L114.715-24.047Q115.313-23.906 115.629-23.379L115.629-23.379L116.719-22.641L117.844-21.867L118.125-21.621L118.160-21.656L118.898-21.129L118.898-21.129Q119.355-20.918 119.637-20.566L119.637-20.566L119.637-20.566Q120.727-19.688 121.535-18.844L121.535-18.844L121.746-18.633L121.746-18.633Q122.344-17.965 122.977-16.910L122.977-16.910L123.504-16.031L124.031-15.117L124.031-15.117Q124.910-13.184 125.051-10.828L125.051-10.828L125.016-10.828L125.086-10.512Z"></path><path d="M148.922-4.605L148.957-4.219L148.957-3.586L148.957-3.586Q148.957-3.340 148.922-3.164L148.922-3.164L148.922-2.637L148.887-2.602L148.922-2.566L148.922-1.617L148.922-1.617Q148.922-1.020 148.535-0.598L148.535-0.598L148.535-0.598Q148.078-0.070 147.305-0.070L147.305-0.070L147.305-0.070Q147.059-0.070 146.813-0.105L146.813-0.105L145.477-0.105L143.789-0.070L142.102 0L141.328 0L141.328 0Q139.816 0 138.727-0.105L138.727-0.105L138.164-0.105L138.164-0.105Q137.602-0.070 137.109-0.070L137.109-0.070L137.109-0.070Q136.617-0.070 136.195-0.105L136.195-0.105L134.824-0.105L134.824-0.105Q134.648-0.070 134.473-0.070L134.473-0.070L134.473-0.070Q134.297-0.070 134.086-0.105L134.086-0.105L133.453-0.105L133.453-0.105Q132.293-0.105 131.906-1.688L131.906-1.688L131.906-1.688Q131.730-2.320 131.730-2.918L131.730-2.918L131.730-2.918Q131.730-3.586 131.977-4.184L131.977-4.184L131.977-4.184Q132.047-4.324 132.047-4.395L132.047-4.395L132.047-4.395Q132.047-4.500 131.977-4.570L131.977-4.570L131.977-8.402L131.977-8.402Q131.871-9.211 131.836-9.949L131.836-9.949L131.836-9.949Q131.836-10.898 131.977-11.496L131.977-11.496L131.977-12.234L131.977-12.234Q131.906-12.621 131.906-12.902L131.906-12.902L131.906-12.902Q131.906-13.219 131.977-13.395L131.977-13.395L131.977-13.430L131.977-13.430Q132.082-13.641 132.082-13.922L132.082-13.922L131.977-13.887L131.977-14.906L131.977-14.906Q131.977-15.152 132.012-15.539L132.012-15.539L131.977-15.574L131.977-16.418L131.977-16.418Q131.836-16.945 131.836-17.613L131.836-17.613L131.906-18.211L131.977-18.773L131.977-19.371L131.906-19.898L131.871-20.461L131.871-20.461Q131.871-21.094 131.977-21.586L131.977-21.586L131.977-26.789L132.012-26.789L132.047-27L131.977-27L131.977-29.637L131.977-29.637Q131.906-30.023 131.906-30.305L131.906-30.305L131.906-30.305Q131.906-30.621 131.977-30.797L131.977-30.797L131.977-31.887L131.977-31.887Q131.766-32.484 131.766-33.504L131.766-33.504L131.766-34.031L131.766-34.031Q131.801-34.453 131.871-35.191L131.871-35.191L131.941-35.754L131.977-36.246L131.977-37.652L131.977-37.652Q131.941-37.969 131.941-38.215L131.941-38.215L131.941-38.215Q131.941-38.953 132.188-39.234L132.188-39.234L132.188-39.234Q132.398-39.586 132.750-39.797L132.750-39.797L132.750-39.762L132.891-39.867L133.031-39.902L133.031-39.902Q133.348-40.043 133.910-40.043L133.910-40.043L134.824-39.973L136.020-39.973L136.371-40.008L136.723-40.043L137.496-40.113L137.777-40.113L137.777-40.113Q138.480-40.113 138.938-39.973L138.938-39.973L139.711-39.973L139.711-39.973Q139.711-39.902 139.746-39.867L139.746-39.867L140.027-39.867L139.992-39.973L140.555-39.973L140.555-39.973Q140.625-39.902 140.695-39.902L140.695-39.902L140.695-39.902Q140.766-39.902 140.836-39.973L140.836-39.973L140.906-39.973L140.906-39.973Q141.293-40.113 141.855-40.113L141.855-40.113L142.066-40.113L142.664-40.043L143.191-39.973L144.879-39.973L145.336-40.008L145.336-40.008Q145.582-40.008 145.793-39.973L145.793-39.973L147.375-39.973L147.375-39.973Q147.797-39.973 148.148-39.762L148.148-39.762L148.148-39.762Q148.535-39.551 148.711-39.199L148.711-39.199L148.711-39.199Q148.992-38.848 148.992-38.355L148.992-38.355L148.992-38.355Q148.992-38.145 148.922-37.898L148.922-37.898L148.922-36.492L148.922-36.492Q148.887-36.527 148.852-36.527L148.852-36.527L148.852-36.527Q148.816-36.527 148.781-36.457L148.781-36.457L148.781-36.387L148.922-36.281L148.922-35.473L148.922-35.473Q148.922-35.297 148.852-35.086L148.852-35.086L148.852-35.086Q148.746-34.242 148.043-34.137L148.043-34.137L148.043-34.137Q147.727-33.996 147.410-33.996L147.410-33.996L146.883-33.996L146.883-33.996Q146.672-33.926 146.391-33.926L146.391-33.926L146.391-33.926Q146.109-33.926 145.758-33.996L145.758-33.996L144.316-33.996L144.246-34.066L143.754-34.066L143.789-33.996L138.094-33.996L137.953-33.855L137.953-33.504L137.777-33.574L137.813-33.363L137.813-33.223L137.848-33.082L137.953-33.082L137.953-32.309L137.883-32.344L137.883-32.168L137.953-32.238L137.918-31.711L137.918-31.711Q138.023-31.219 138.023-30.902L138.023-30.902L138.023-30.902Q138.023-30.656 137.953-30.480L137.953-30.480L137.953-29.496L137.918-29.602L137.918-29.602Q138.059-29.074 138.059-28.441L138.059-28.441L138.059-28.441Q138.059-27.914 137.953-27.352L137.953-27.352L137.953-26.016L140.379-26.016L140.695-26.051L141.047-26.086L141.223-26.086L141.223-26.086Q141.504-26.086 141.715-26.016L141.715-26.016L141.785-26.016L141.785-25.980L142.137-25.910L142.066-26.016L142.875-26.016L142.875-26.016Q143.121-26.086 143.438-26.086L143.438-26.086L144-26.016L144.422-26.016L144.422-26.016Q144.738-26.016 145.055-25.875L145.055-25.875L145.160-25.805L145.160-25.805Q145.934-25.383 145.934-24.539L145.934-24.539L145.934-22.008L145.934-22.008Q146.004-21.797 146.004-21.621L146.004-21.621L146.004-21.621Q146.004-21.270 145.793-20.918L145.793-20.918L145.793-20.918Q145.441-20.180 144.668-20.074L144.668-20.074L144.668-20.074Q144.422-20.004 144.035-20.004L144.035-20.004L143.719-20.039L141.891-20.039L141.891-20.039Q141.434-19.969 140.871-19.969L140.871-19.969L140.871-19.969Q140.344-19.969 139.746-20.039L139.746-20.039L138.586-20.039L138.516-20.145L138.445-20.250L138.164-20.039L137.953-20.039L137.953-19.230L137.953-19.230Q137.988-19.090 137.988-18.879L137.988-18.879L137.953-18.492L137.953-17.719L137.953-17.719Q138.059-17.016 138.059-16.453L138.059-16.453L138.059-16.453Q138.059-15.891 137.953-15.504L137.953-15.504L137.953-14.836L137.918-14.766L137.918-14.414L137.953-10.582L137.953-10.582Q138.059-10.336 138.059-10.090L138.059-10.090L138.059-10.090Q138.059-9.809 137.953-9.527L137.953-9.527L137.953-8.402L138.023-8.016L138.059-7.559L138.059-7.348L138.059-7.348Q138.059-6.926 137.953-6.715L137.953-6.715L137.953-6.082L138.797-6.082L138.797-6.082Q139.113-6.117 139.535-6.117L139.535-6.117L139.957-6.117L140.520-6.047L141.082-6.012L140.941-6.082L142.629-6.082L142.629-6.082Q142.805-6.117 143.051-6.117L143.051-6.117L143.719-6.117L144.070-6.082L147.410-6.082L147.410-6.082Q148.641-6.082 148.887-4.887L148.887-4.887L148.887-4.887Q148.922-4.746 148.922-4.605L148.922-4.605Z"></path><path d="M174.480-38.320L174.480-38.215L174.480-38.215Q174.445-38.039 174.375-37.898L174.375-37.898L173.848-35.754L173.848-35.754Q173.813-35.227 173.566-34.770L173.566-34.770L173.355-33.820L173.355-33.820Q173.320-33.258 173.074-32.766L173.074-32.766L173.039-32.625L172.969-32.590L172.969-32.449L172.652-31.184L172.582-31.113L172.547-30.973L172.582-30.867L172.125-29.109L172.090-29.109L172.055-28.793L172.020-28.512L172.020-28.512Q171.984-28.195 171.809-27.949L171.809-27.949L171.527-26.789L171.527-26.789Q171.492-26.578 171.422-26.297L171.422-26.297L171.246-25.770L171.141-25.313L171.070-24.996L171.035-24.645L171.035-24.645Q171-24.293 170.789-24.047L170.789-24.047L170.719-23.730L170.578-23.695L170.578-23.695Q170.543-23.520 170.508-23.309L170.508-23.309L170.613-23.273L170.543-22.992L170.543-22.852L170.543-22.852Q170.543-22.641 170.473-22.395L170.473-22.395L170.367-22.148L170.227-21.867L169.875-20.531L169.805-20.145L169.734-19.793L169.734-19.793Q169.664-19.336 169.523-19.055L169.523-19.055L169.383-18.563L169.348-18.563L169.348-18.563Q169.277-18.422 169.242-18.316L169.242-18.316L169.207-18.141L169.277-18.105L169.031-17.227L169.031-16.980L169.031-16.980Q169.031-16.594 168.855-16.031L168.855-16.031L168.645-15.469L168.434-14.941L168.047-13.395L167.941-12.375L167.871-11.355L167.871-10.441L167.871-10.441Q167.977-9.984 167.977-9.422L167.977-9.422L167.977-9.422Q167.977-8.859 167.871-8.156L167.871-8.156L167.871-6.082L167.871-6.082Q168.012-5.555 168.012-5.063L168.012-5.063L168.012-5.063Q168.012-4.605 167.871-4.148L167.871-4.148L167.871-1.723L167.871-1.723Q167.871-0.773 167.027-0.352L167.027-0.352L167.027-0.352Q166.570 0 165.270 0L165.270 0L165.270 0Q164.215 0 163.406-0.176L163.406-0.176L163.406-0.176Q162.352-0.387 161.930-1.266L161.930-1.266L161.930-1.266Q161.719-1.723 161.719-2.215L161.719-2.215L161.719-2.215Q161.719-2.672 161.895-3.164L161.895-3.164L161.895-3.340L161.965-3.340L161.965-3.340Q162-3.445 162-3.586L162-3.586L161.895-3.480L161.895-5.309L161.895-5.309Q161.824-5.695 161.824-6.152L161.824-6.152L161.824-6.469L161.859-7.066L161.895-7.629L161.895-9.352L162-9.316L162-9.316Q162.035-9.492 162.035-9.703L162.035-9.703L161.895-9.668L161.895-10.336L161.895-10.336Q161.789-10.688 161.789-11.250L161.789-11.250L161.789-11.531L161.824-12.164L161.824-12.164Q161.859-12.340 161.859-12.480L161.859-12.480L161.859-12.480Q161.859-12.656 161.824-12.762L161.824-12.762L161.684-13.395L161.508-13.992L161.508-13.992Q161.297-14.766 161.262-15.223L161.262-15.223L161.016-16.172L161.016-16.172Q160.770-16.629 160.770-17.051L160.770-17.051L160.770-17.156L159.504-22.078L159.504-22.078Q159.012-22.676 158.730-24.188L158.730-24.188L158.590-24.785L158.520-25.383L158.520-25.383Q158.379-26.121 158.273-26.473L158.273-26.473L157.746-28.582L157.746-28.582Q157.430-29.777 157.254-30.691L157.254-30.691L157.184-31.008L157.219-31.008L157.148-31.289L157.113-31.289L156.480-33.645L156.305-34.172L156.305-34.172Q156.199-34.488 156.199-34.734L156.199-34.734L156.059-35.367L156.059-35.367Q156.129-35.438 156.129-35.543L156.129-35.543L156.129-35.543Q156.094-35.648 155.988-35.754L155.988-35.754L155.953-35.754L155.461-37.688L155.461-37.688Q155.215-38.039 155.215-38.461L155.215-38.461L155.215-38.461Q155.215-38.672 155.285-38.918L155.285-38.918L155.285-38.918Q155.496-39.727 156.270-39.973L156.270-39.973L156.270-39.973Q156.551-40.113 156.832-40.113L156.832-40.113L156.832-40.113Q157.008-40.113 157.148-40.078L157.148-40.078L157.641-40.078L157.676-39.973L157.957-39.973L157.992-40.078L158.449-40.078L158.449-40.078Q158.660-40.113 158.871-40.113L158.871-40.113L158.871-40.113Q159.082-40.113 159.293-40.078L159.293-40.078L159.996-40.078L159.996-40.008L159.996-40.008Q160.207-40.008 160.418-39.902L160.418-39.902L160.418-39.938L160.418-39.938Q160.770-39.797 160.980-39.516L160.980-39.516L160.980-39.516Q161.543-39.059 161.859-37.547L161.859-37.547L161.859-37.547Q161.965-37.090 162.070-36.316L162.070-36.316L162.176-35.754L162.176-35.754Q162.211-35.473 162.246-35.297L162.246-35.297L162.738-33.398L162.738-33.398Q162.914-32.977 162.949-32.520L162.949-32.520L163.266-31.324L163.441-30.902L163.582-30.445L163.582-30.445Q163.723-29.988 163.723-29.672L163.723-29.672L163.723-29.566L163.934-28.723L163.898-28.688L163.898-28.688Q164.250-28.055 164.496-27.211L164.496-27.211L164.496-27.211Q164.742-26.367 164.742-25.910L164.742-25.910L164.742-25.699L164.742-25.699Q164.883-25.102 164.918-25.102L164.918-25.102L165.340-26.754L165.340-26.754Q165.375-27.070 165.480-27.352L165.480-27.352L165.762-28.477L165.762-28.688L165.762-28.688Q165.762-29.215 166.043-29.566L166.043-29.566L166.324-30.551L166.324-30.551Q166.289-30.656 166.289-30.797L166.289-30.797L166.289-30.797Q166.289-31.148 166.430-31.570L166.430-31.570L166.430-31.570Q166.570-32.203 166.816-32.520L166.816-32.520L167.098-33.574L167.133-33.609L167.168-33.574L167.273-34.172L167.273-34.207L167.309-34.453L167.309-34.453Q167.344-34.945 167.520-35.613L167.520-35.613L167.730-36.176L167.906-36.738L168.012-37.020L167.977-37.020L168.047-37.195L168.258-38.074L168.469-38.918L168.469-38.918Q168.645-39.902 169.523-40.008L169.523-40.008L169.523-40.008Q169.734-40.078 169.945-40.078L169.945-40.078L171.598-40.078L171.598-40.078Q171.809-40.113 172.020-40.148L172.020-40.148L172.547-40.219L172.547-40.219Q173.180-40.219 173.461-40.008L173.461-40.008L173.461-40.008Q174.516-39.727 174.516-38.742L174.516-38.742L174.516-38.742Q174.516-38.531 174.480-38.320L174.480-38.320Z"></path></g></g><g transform="translate(-117.97453361359428 -72.72221061981779) scale(1.5051469454880382)" id="logomark"><g fill="#000000"><path d="M34.906 43.386c0 16.385 6.098 29.357 14.062 30.395v12.302a1 1 0 0 0 2 0V73.791c7.995-.978 14.125-13.977 14.125-30.404 0-17.086-6.63-30.47-15.094-30.47-8.463 0-15.093 13.384-15.093 30.469zm28.188 0c0 14.724-5.459 27.259-12.125 28.38V51.511l5.357-5.357a.999.999 0 1 0-1.414-1.414l-3.943 3.943V32.229a1 1 0 0 0-2 0v8.743l-4.151-4.151a.999.999 0 1 0-1.414 1.414l5.565 5.564v15.605l-4.151-4.151a.999.999 0 1 0-1.414 1.414l5.565 5.564v9.522c-6.637-1.188-12.062-13.691-12.062-28.369 0-15.432 5.996-28.47 13.093-28.47 7.097.003 13.094 13.04 13.094 28.472z"></path></g></g></g></g></svg>