<svg xmlns="http://www.w3.org/2000/svg" viewBox="0 0 64 64" height="100%"><g class="nc-icon-wrapper" stroke-linecap="square" stroke-linejoin="miter" stroke-width="2" transform="translate(0.5 0.5)" fill="var(--primary)" stroke="var(--primary)"><path d="M39.071,16.929a10,10,0,0,0-14.142,0" fill="none" stroke-miterlimit="10" data-color="color-2"/><path d="M46.142,9.858a20,20,0,0,0-28.284,0" fill="none" stroke-miterlimit="10" data-color="color-2"/><path d="M4,16A16,16,0,0,1,20,32v2l4,9-4,2v3a6,6,0,0,1-6,6H8v6" fill="none" stroke="var(--primary)" stroke-miterlimit="10"/><path d="M60,16A16,16,0,0,0,44,32v2l-4,9,4,2v3a6,6,0,0,0,6,6h6v6" fill="none" stroke="var(--primary)" stroke-miterlimit="10"/><circle cx="32" cy="25" r="1" fill="none" stroke-miterlimit="10" data-color="color-2"/></g></svg>