<svg xmlns="http://www.w3.org/2000/svg" viewBox="0 0 48 48"><title>virtual environment</title><g class="nc-icon-wrapper" stroke-linecap="square" stroke-linejoin="miter" stroke-width="2" fill="var(--primary)" stroke="var(--primary)"><path d="M14,20s4-6,10-6,10,6,10,6-4,6-10,6S14,20,14,20Z" fill="none" stroke-miterlimit="10" data-cap="butt" data-color="color-2" stroke-linecap="butt"/><circle cx="24" cy="20" r="2" data-cap="butt" data-color="color-2" data-stroke="none" stroke="none" stroke-linecap="butt"/><path d="M2,10V38c0,1.592,2.29,3.035,6,4.109v-28C4.29,13.035,2,11.592,2,10c0-3.314,9.85-6,22-6s22,2.686,22,6c0,1.592-2.29,2.926-6,4V42.109c3.71-1.074,6-2.517,6-4.109V10" fill="none" stroke="var(--primary)" stroke-miterlimit="10" data-cap="butt" stroke-linecap="butt"/><path d="M40,33.891A60.43,60.43,0,0,0,24,32,60.43,60.43,0,0,0,8,33.891" fill="none" stroke="var(--primary)" stroke-miterlimit="10" data-cap="butt" stroke-linecap="butt"/></g></svg>