<svg xmlns="http://www.w3.org/2000/svg" viewBox="0 0 64 64" width="10vmin" height="10vmin"><title>phone heart</title><g class="nc-icon-wrapper" stroke-linecap="square" stroke-linejoin="miter" stroke-width="2" fill="var(--primary)" stroke="var(--primary)"><path d="M41.151,23.853A6.3,6.3,0,0,0,32,24.089a6.324,6.324,0,1,0-9.151,8.725L32,42l9.151-9.187a6.352,6.352,0,0,0,0-8.96Z" fill="none" stroke-miterlimit="10" data-color="color-2"/> <line x1="12" y1="54" x2="52" y2="54" fill="none" stroke="var(--primary)" stroke-miterlimit="10" data-cap="butt" stroke-linecap="butt"/> <line x1="12" y1="10" x2="52" y2="10" fill="none" stroke="var(--primary)" stroke-miterlimit="10" data-cap="butt" stroke-linecap="butt"/> <path d="M52,58a4.013,4.013,0,0,1-4,4H16a4.013,4.013,0,0,1-4-4V6a4.013,4.013,0,0,1,4-4H48a4.013,4.013,0,0,1,4,4Z" fill="none" stroke="var(--primary)" stroke-miterlimit="10"/></g></svg>