<svg xmlns="http://www.w3.org/2000/svg" viewBox="0 0 64 64"><title>responsive</title><g class="nc-icon-wrapper" stroke-linecap="square" stroke-linejoin="miter" stroke-width="2" fill="var(--primary)" stroke="var(--primary)"><polyline data-color="color-2" fill="none" stroke-miterlimit="10" points=" 8,48 2,48 2,8 34,8 "/> <polyline data-color="color-2" fill="none" stroke-miterlimit="10" points="56,8 62,8 62,48 22,48 "/> <line data-color="color-2" fill="none" stroke-miterlimit="10" x1="22" y1="60" x2="42" y2="60"/> <path fill="none" stroke="var(--primary)" stroke-miterlimit="10" d="M55,32H35c-0.6,0-1-0.4-1-1 V3c0-0.6,0.4-1,1-1h20c0.6,0,1,0.4,1,1v28C56,31.6,55.6,32,55,32z"/> <line fill="none" stroke="var(--primary)" stroke-miterlimit="10" x1="44" y1="26" x2="46" y2="26"/> <path fill="none" stroke="var(--primary)" stroke-miterlimit="10" d="M21,54H9c-0.6,0-1-0.4-1-1 V31c0-0.6,0.4-1,1-1h12c0.6,0,1,0.4,1,1v22C22,53.6,21.6,54,21,54z"/> <line fill="none" stroke="var(--primary)" stroke-miterlimit="10" x1="14" y1="48" x2="16" y2="48"/> <rect data-color="color-2" x="28" y="56" fill="none" stroke-miterlimit="10" width="8" height="4"/></g></svg>