<svg xmlns="http://www.w3.org/2000/svg" viewBox="0 0 64 64"><title>explore user</title><g class="nc-icon-wrapper" stroke-linecap="square" stroke-linejoin="miter" stroke-width="2" fill="var(--primary)" stroke="var(--primary)"><path data-cap="butt" fill="none" stroke="var(--primary)" stroke-miterlimit="10" d="M60.627,23.002 C61.519,25.842,62,28.865,62,32c0,16.569-13.431,30-30,30S2,48.569,2,32S15.431,2,32,2c6.63,0,12.76,2.148,17.725,5.79" stroke-linecap="butt"/> <circle fill="none" stroke="var(--primary)" stroke-miterlimit="10" cx="54" cy="12" r="6"/> <path data-color="color-2" fill="none" stroke-miterlimit="10" d="M44,45 v-3.965c0-1.42-0.745-2.726-1.967-3.449C40.088,36.435,36.716,35,32,35c-4.777,0-8.127,1.426-10.052,2.575 C20.736,38.299,20,39.601,20,41.013V45H44z"/> <circle data-color="color-2" fill="none" stroke-miterlimit="10" cx="32" cy="23" r="6"/></g></svg>