<?xml version="1.0" encoding="UTF-8" standalone="no"?>
<!DOCTYPE svg PUBLIC "-//W3C//DTD SVG 1.1//EN" "http://www.w3.org/Graphics/SVG/1.1/DTD/svg11.dtd">
<svg viewBox="0 0 210 41" version="1.1" xmlns="http://www.w3.org/2000/svg" xmlns:xlink="http://www.w3.org/1999/xlink" xml:space="preserve" xmlns:serif="http://www.serif.com/" style="fill-rule:evenodd;clip-rule:evenodd;stroke-linejoin:round;stroke-miterlimit:1.41421;">
    <g transform="matrix(1,0,0,1,3.67487e-05,-0.572445)">
        <g>
            <g transform="matrix(0.5,0,0,0.5,-105.683,-48.191)">
                <g transform="matrix(1.00623,0,0,1,302.15,138.882)">
                    <text x="0px" y="0px" style="font-family:'OpenSans-Bold', 'Open Sans', sans-serif;font-weight:700;font-size:40px;fill:rgb(0,69,156);">DUSTIN HEISEY</text>
                </g>
                <g transform="matrix(1,0,0,1,303.607,164.042)">
                    <text x="0px" y="0px" style="font-family:'OpenSans-Regular', 'Open Sans', sans-serif;font-size:20px;fill:rgb(77,77,77);">Dallas W<tspan x="79.795px 91.016px " y="0px 0px ">eb</tspan> Designer/Developer</text>
                </g>
            </g>
            <g transform="matrix(1,0,0,1,0,0.572482)">
                <path d="M20.047,0C31.132,-0.021 40.149,8.961 40.17,20.047C40.191,31.132 31.208,40.149 20.123,40.17C9.038,40.191 0.021,31.208 0,20.123C-0.021,9.038 8.961,0.021 20.047,0Z" style="fill:rgb(0,69,156);"/>
                <path d="M27.091,7.927C33.787,11.828 36.067,20.391 32.204,27.081C28.332,33.789 19.743,36.09 13.035,32.218L13.013,32.203L27.091,7.927Z" style="fill:white;"/>
            </g>
        </g>
    </g>
</svg>
