<?xml version="1.0" encoding="UTF-8" standalone="no"?>
<!DOCTYPE svg PUBLIC "-//W3C//DTD SVG 1.1//EN" "http://www.w3.org/Graphics/SVG/1.1/DTD/svg11.dtd">
<svg width="100%" height="100%" viewBox="0 0 383 375" version="1.1" xmlns="http://www.w3.org/2000/svg" xmlns:xlink="http://www.w3.org/1999/xlink" xml:space="preserve" xmlns:serif="http://www.serif.com/" style="fill-rule:evenodd;clip-rule:evenodd;stroke-linejoin:round;stroke-miterlimit:1.41421;">
    <g transform="matrix(1,0,0,1,-1003.66,-1055.59)">
        <g transform="matrix(6.12323e-17,-1,1,6.12323e-17,1003.66,1430.59)">
            <path d="M0,68.959C67.765,104.144 198.247,118.734 250.459,160.65C329.299,223.944 287.565,336.864 351.56,353.317C367.734,357.476 367.847,357.612 375,361.544L375,382.662C367.202,378.616 367.078,378.476 349.445,374.198C279.679,357.271 325.177,241.106 239.227,175.992C190.097,138.773 77.4,122.497 0,95.479L0,68.959Z" style="fill:rgb(2,85,139);"/>
            <path d="M375,337.22L375,361.544C367.847,357.612 367.734,357.476 351.56,353.317C287.565,336.864 329.299,223.944 250.459,160.65C198.238,118.726 67.716,104.139 0,68.959L0,21.644C42.173,75.208 202.512,86.324 260.016,136.326C332.806,199.62 294.274,312.539 353.358,328.993C368.263,333.144 368.395,333.287 375,337.22Z" style="fill:rgb(29,213,250);"/>
            <path d="M375,24.266L131.039,24.266C117.827,13.821 89.145,4.796 58.846,0L375,0L375,24.266Z" style="fill:rgb(0,239,255);"/>
            <path d="M0,0L58.846,0C89.146,4.8 117.787,13.811 131.039,24.266L375,24.266L375,35.687L109.035,35.687C90.205,21.667 42.691,10.124 0,7.52L0,0Z" style="fill:rgb(0,239,255);"/>
            <path d="M375,35.687L375,337.22C368.396,333.288 368.291,333.151 353.358,328.993C294.274,312.539 332.806,199.62 260.016,136.326C202.501,86.314 42.113,75.203 0,21.644L0,7.52C42.691,10.124 90.205,21.667 109.035,35.687L375,35.687Z" style="fill:rgb(0,239,255);"/>
        </g>
    </g>
</svg>
