<?xml version="1.0" encoding="UTF-8" standalone="no"?>
<!DOCTYPE svg PUBLIC "-//W3C//DTD SVG 1.1//EN" "http://www.w3.org/Graphics/SVG/1.1/DTD/svg11.dtd">
<svg width="100%" height="100%" viewBox="0 0 1000 1000" version="1.1" xmlns="http://www.w3.org/2000/svg" xmlns:xlink="http://www.w3.org/1999/xlink" xml:space="preserve" xmlns:serif="http://www.serif.com/" style="fill-rule:evenodd;clip-rule:evenodd;stroke-linejoin:round;stroke-miterlimit:1.41421;">
    <g id="Background">
        <rect x="109.9" y="43" width="727.7" height="717.3" style="fill:rgb(243,243,243);"/>
        <rect x="109.9" y="43" width="727.7" height="54.6" style="fill:rgb(225,225,225);"/>
        <circle cx="148.3" cy="71" r="8.6" style="fill:rgb(0,69,156);"/>
        <circle cx="176" cy="71" r="8.6" style="fill:rgb(0,69,156);"/>
        <circle cx="203.7" cy="71" r="8.6" style="fill:rgb(0,69,156);"/>
        <rect x="145.5" y="137.4" width="290.9" height="157.6" style="fill:white;"/>
        <rect x="145.5" y="332.4" width="290.9" height="157.6" style="fill:white;"/>
        <rect x="507.2" y="332.4" width="290.9" height="339.9" style="fill:white;"/>
        <rect x="486.9" y="148.8" width="399.4" height="15.2" style="fill:rgb(225,225,225);"/>
        <rect x="486.9" y="191.7" width="399.4" height="15.2" style="fill:rgb(225,225,225);"/>
        <rect x="486.9" y="234.6" width="399.4" height="15.2" style="fill:rgb(225,225,225);"/>
        <rect x="486.9" y="277.5" width="399.4" height="15.2" style="fill:rgb(225,225,225);"/>
    </g>
    <g id="Foreground">
        <rect x="689.9" y="756.2" width="15.3" height="23.2" style="fill:rgb(222,142,104);"/>
        <rect x="870.2" y="854.2" width="15.3" height="23.2" style="fill:rgb(222,142,104);"/>
        <path d="M802.2,541.5C783.7,541.5 701.1,623.6 693.9,637.4C686.7,651.2 688.8,759.3 688.8,759.3L706.6,762.7L735.5,662C748.1,660.5 801.1,649.1 828.5,627C855.9,604.8 825.9,555.3 825.9,555.3L802.2,541.5Z" style="fill:rgb(29,202,250);fill-rule:nonzero;"/>
        <path d="M771.3,430C762.2,438.1 744,458.4 742.5,461C737.9,458.8 690,433.6 686.4,432C682.8,430.4 675.2,417.7 672.6,417.7C671.1,417.7 669.7,420.6 669.7,422.6C669.7,426 671.3,428.6 672.3,429.7C668.9,429.2 638.9,426.9 638.9,428.9C638.9,434.1 672.5,441 675.1,442.4C677.7,443.8 732.4,494.4 751.4,494.4C758.8,494.4 791.5,472.2 791.5,469.8C794.6,467.7 799.4,464.6 799.4,464.6L799.4,447L788,438.7C788,438.6 773.1,428.4 771.3,430Z" style="fill:rgb(222,142,104);fill-rule:nonzero;"/>
        <path d="M770.1,424.2C772.1,408 809.4,371.2 826.5,387.6C841.4,401.9 814.4,453 807.5,455C799.7,455.8 769.6,435.2 770.1,424.2Z" style="fill:rgb(254,191,146);fill-rule:nonzero;"/>
        <path d="M883.9,390.5C902.9,382.5 929.5,426.5 926.5,442.5C926.5,449.5 887.5,464.5 881.5,460.5C875.5,456.5 864.9,398.5 883.9,390.5Z" style="fill:rgb(254,216,146);fill-rule:nonzero;"/>
        <path d="M807.3,548.6L870.1,854.1L886.2,854.1L891.9,581.6C891.9,576.9 891.5,547.3 891.5,543.5C873.3,548.8 834.5,553 807.3,548.6Z" style="fill:rgb(29,213,250);fill-rule:nonzero;"/>
        <path d="M870.2,877.4L885.5,877.4L885.5,894L843.3,894L870.2,877.4Z" style="fill-rule:nonzero;"/>
        <path d="M689.9,779.4L705.2,779.4L705.2,796L663,796L689.9,779.4Z" style="fill-rule:nonzero;"/>
        <rect x="598" y="796" width="182.1" height="106.6" style="fill:rgb(0,69,156);"/>
        <path d="M140.7,908.4L70.4,907.6L45.8,817.3L163.7,817.3L140.7,908.4Z" style="fill:rgb(0,69,156);fill-rule:nonzero;"/>
        <path d="M842.3,367C889.3,367 905.7,406.1 905.7,418.8C905.7,431.5 891,509 891.6,543.5C891.7,549.2 807.3,554.3 795.8,546C790.4,542.1 778.8,367 842.3,367Z" style="fill:rgb(254,204,146);fill-rule:nonzero;"/>
        <path d="M926.5,442.5C939.8,462.9 939,509.9 939,517C939,524.1 889.4,587.9 885.1,587.9C882.5,585.3 875.3,577.4 875.3,575C877.6,570.8 907.1,506.3 912.4,501.7C910,498.8 888.9,465.7 888,460.2C906.5,457.1 924.4,449.3 926.5,442.5Z" style="fill:rgb(222,142,104);fill-rule:nonzero;"/>
        <path d="M926.5,442.5C929.5,426.5 905.2,380.1 883.9,390.5C865.4,399.6 875.5,456.5 881.5,460.5C888.7,463.6 923.7,453.1 926.5,442.5Z" style="fill:rgb(254,216,146);fill-rule:nonzero;"/>
        <path d="M830.3,357.4C829.3,360.5 828.8,370.1 829.9,374.4C830,374.6 849.9,376.1 852.1,372.6C852.2,369.7 857,343.9 863.5,335.9C864.1,335 862.8,332.5 862.8,332.5L839.7,342.1L830.3,357.4" style="fill:rgb(211,132,102);fill-rule:nonzero;"/>
        <path d="M860.2,334.7C861.7,336.7 863.6,337.6 865.3,337.6C869.1,337.6 877.9,334.1 877.9,321.6C877.9,312.6 869.1,308 869.1,303.7C869.1,299.6 870.2,299.5 870.2,296.1C870.2,294.4 868.5,288.8 863.2,288.8C860.2,288.8 859.1,291.3 856.1,291.3C852.8,291.3 849.8,284.9 844.8,284.9C841.4,284.9 838.2,288.1 834.6,288.1C830.5,288.1 827.7,282 822,282C816.1,282 814,287.3 811.7,287.3C808.8,287.3 808.3,286.5 805.4,286.5C803.6,286.5 798.1,289.7 798.1,295.5C798.1,299.6 799.8,306.3 808.3,306.3C813.3,306.3 816.1,314.2 820.5,314.2C822.2,314.2 823.7,312.8 824.1,313.5C825.8,316.5 829.3,324.7 829.3,324.7L845.2,333.6L860.2,334.7Z" style="fill:rgb(0,69,156);fill-rule:nonzero;"/>
        <path d="M856.7,330.6C856.7,332 856.2,332.3 854.1,332.3C853.1,332.3 851.7,331 851.7,329.6C851.7,326.3 854.1,325.6 854.1,321.3C854.1,314 835,310.2 828.3,306.4C825.9,308.8 824.2,311.9 823.5,315.4L819.2,337.5C817.3,347.1 823.6,356.4 833.1,358.3C842.6,360.2 852,353.9 853.9,344.4L854.6,340.6C855,340.7 855.4,340.8 855.7,340.8C858.2,340.8 860.1,338.5 860.1,335.7C860.3,333.1 856.7,328.5 856.7,330.6Z" style="fill:rgb(222,142,104);fill-rule:nonzero;"/>
        <path d="M114.8,781.9C94.5,646 44.8,574.7 38.5,577.4C29.6,581.3 27,657.6 42.9,736.4C43.3,736.4 43.6,736.3 44,736.3C48.6,736.3 52.3,740 52.3,744.6C52.3,746 52,747.3 51.4,748.4C54.1,749.8 56,752.6 56,755.8C56,759.8 53.1,763.2 49.3,764C54,782.2 59.9,800.2 66.9,816.9C70.5,816.9 110.9,816.9 110.9,816.9C110.9,816.9 117.8,801.7 114.8,781.9Z" style="fill:rgb(29,202,250);fill-rule:nonzero;"/>
        <path d="M232.3,637.8C220,637.8 206.8,673.2 192.2,673.2C189,673.2 186.9,669.7 186.9,666.4C186.9,663.2 197,628 197,610.9C197,609.4 196.9,607.8 196.7,606.2C195.1,607.2 193.1,607.8 191.1,607.8C185.1,607.8 180.2,602.9 180.2,596.9C180.2,591.6 183.9,587.3 188.9,586.2C183.8,579.7 176.3,575.1 166.1,575.1C153.2,575.1 135,586.6 135,604.4C135,609.4 136.5,622.1 136.5,633.6C136.5,698.8 85.4,708.6 85.4,780.8C85.4,796 93.8,812.7 96.3,816.8C96.3,816.8 139.1,817.3 143.2,817.3C147.3,817.3 180.6,761.7 184.4,755.8C198.9,733.4 247.1,708.8 247.1,655.3C247.1,647.8 244.4,637.8 232.3,637.8Z" style="fill:rgb(29,213,250);fill-rule:nonzero;"/>
    </g>
</svg>
